<svg viewBox="0 0 72 72" xmlns="http://www.w3.org/2000/svg" xmlns:xlink="http://www.w3.org/1999/xlink" width="72.000000" height="72.000000" fill="none">
	<rect id="Frame 32" width="72.000000" height="72.000000" x="0.000000" y="0.000000" />
	<path id="talent-management 1 (Traced)" d="M41.2135 0.380285L40.772 0.821747L40.772 3.16368C40.772 6.07413 40.9344 6.50761 42.0248 6.50761C42.2216 6.50761 42.543 6.34714 42.739 6.1511C43.0903 5.79996 43.0955 5.75741 43.0955 3.26286C43.0955 0.439389 43.0244 0.203264 42.1211 0.0288577C41.7311 -0.0465104 41.5829 0.0108507 41.2135 0.380285ZM27.5312 6.07559C26.8693 6.73749 27.0253 7.04637 29.0519 9.08523C30.6768 10.7198 30.8637 10.8641 31.3564 10.8641C31.7677 10.8641 31.9655 10.7716 32.2051 10.4671C32.7506 9.77341 32.543 9.38844 30.5581 7.41522C28.5457 5.41441 28.3007 5.30608 27.5312 6.07559ZM54.9308 5.90713C54.6912 6.0554 53.8252 6.86789 53.0067 7.71263C51.6847 9.07666 51.5182 9.30654 51.5182 9.76586C51.5182 10.4559 51.9341 10.8641 52.6372 10.8641C53.132 10.8641 53.3195 10.7201 54.9607 9.07884C56.5122 7.52733 56.746 7.23166 56.746 6.82128C56.746 6.25871 56.1961 5.63601 55.6997 5.63688C55.5165 5.63717 55.1704 5.75872 54.9308 5.90713ZM40.7943 8.77867C40.0085 9.17889 39.7345 9.70472 38.7387 12.7224L37.7946 15.5837L34.5274 15.6563C31.0835 15.7329 30.9682 15.7554 30.2978 16.4788C29.7407 17.0802 29.5903 17.4447 29.5903 18.1939C29.5903 19.424 29.9225 19.8141 32.6365 21.77C33.9962 22.7499 35.1086 23.6137 35.1086 23.6895C35.1086 23.7653 34.7165 25.0515 34.2372 26.5477C33.7297 28.1323 33.3659 29.5284 33.3659 29.8918C33.3659 31.6207 35.188 32.8125 36.8009 32.1386C37.0876 32.0188 38.3598 31.1655 39.628 30.2423C41.0668 29.195 42.0023 28.6044 42.1155 28.6718C42.2152 28.7313 43.2721 29.4947 44.4641 30.3684C46.7762 32.0629 47.3086 32.3564 48.0701 32.3564C48.746 32.3564 49.7862 31.7927 50.1665 31.2204C50.7969 30.2715 50.7511 29.803 49.7181 26.6252C49.0643 24.6138 48.82 23.6721 48.9208 23.5507C49.0007 23.4545 50.0709 22.6512 51.299 21.7657C53.7168 20.0225 54.0506 19.6932 54.2857 18.82C54.5862 17.7039 53.9783 16.417 52.9245 15.9385C52.3893 15.6957 51.948 15.6623 49.2265 15.6595C46.8847 15.6571 46.1217 15.6123 46.077 15.4748C46.0445 15.375 45.6382 14.1189 45.1739 12.6834C44.303 9.99022 44.0312 9.42983 43.3516 8.9265C42.8058 8.52222 41.4512 8.44394 40.7943 8.77867ZM43.1452 13.8081C44.501 17.9882 44.3508 17.8779 48.8197 17.9798C50.8567 18.0263 52.0211 18.1075 52.0534 18.2053C52.0813 18.2894 50.9967 19.1564 49.6433 20.1318C48.0653 21.2691 47.0671 22.0921 46.8609 22.4257C46.3348 23.2769 46.4355 24.0817 47.4405 27.0514C47.9261 28.4866 48.3234 29.7445 48.3234 29.8469C48.3234 30.2526 47.7999 29.9636 45.53 28.3052C43.038 26.4848 42.394 26.1801 41.479 26.389C40.811 26.5414 40.9634 26.4459 38.2647 28.4024C35.9372 30.0897 35.4218 30.3081 35.6872 29.4949C37.4393 24.1281 37.4653 24.0335 37.3741 23.3678C37.244 22.4184 36.8028 21.9598 34.1693 20.0364C32.894 19.105 31.8645 18.2775 31.8815 18.1976C31.9004 18.1088 33.1665 18.0243 35.1441 17.9798C38.1834 17.9116 38.4075 17.8876 38.9056 17.5779C39.1967 17.3968 39.5306 17.1027 39.6472 16.9244C39.7639 16.7462 40.2678 15.3586 40.767 13.8411C41.2661 12.3236 41.7041 11.0329 41.7401 10.9731C41.9942 10.5512 42.2681 11.1039 43.1452 13.8081ZM21.0655 21.0449C20.177 21.3018 19.8409 21.8352 19.055 24.236L18.3219 26.4751L15.7613 26.5477C12.9095 26.6286 12.6943 26.6978 12.1336 27.7141C11.799 28.3205 11.8422 29.3376 12.2271 29.9252C12.3684 30.1409 13.3106 30.9135 14.3209 31.6419C15.331 32.3705 16.1502 33.0089 16.1411 33.0608C16.1319 33.1127 15.8127 34.1436 15.4317 35.3518C14.6619 37.7931 14.6466 38.2498 15.3094 39.0373C16.034 39.8986 17.089 40.1469 18.0067 39.6723C18.257 39.5429 19.1979 38.8924 20.0974 38.2268L21.733 37.0166L23.4078 38.239C24.3287 38.9114 25.2766 39.5618 25.5139 39.6845C26.4081 40.147 27.4702 39.8899 28.1876 39.0373C28.8501 38.2499 28.8347 37.7931 28.0661 35.427C27.6859 34.2573 27.3494 33.2335 27.318 33.1519C27.2867 33.0701 28.1208 32.3875 29.1718 31.6347C30.7109 30.5322 31.1342 30.1515 31.3496 29.6776C31.6881 28.9324 31.6863 28.5158 31.3419 27.757C30.8696 26.7169 30.6106 26.6303 27.7215 26.5477L25.1848 26.4751L24.4469 24.2683C23.6416 21.8602 23.2689 21.288 22.3377 21.0292C21.7418 20.8638 21.6895 20.8644 21.0655 21.0449ZM61.4387 21.0442C60.5162 21.3111 60.1551 21.8811 59.3987 24.2646L58.6972 26.4751L56.1342 26.5477C53.28 26.6286 53.0649 26.6977 52.5042 27.7141C52.1708 28.3185 52.2123 29.3372 52.5941 29.9198C52.7335 30.1325 53.6805 30.91 54.6983 31.6476L56.5492 32.9885L55.8496 35.1775C55.4648 36.3814 55.1496 37.5254 55.1492 37.7199C55.1473 38.7999 56.282 39.9077 57.3902 39.9077C58.0858 39.9077 58.5072 39.6777 60.4668 38.2277L62.1011 37.0185L64.0055 38.4092C65.5674 39.5499 66.0254 39.8129 66.5533 39.8724C67.3546 39.9628 67.9474 39.7261 68.5021 39.0942C69.226 38.2698 69.218 37.8312 68.4346 35.427C68.0536 34.2573 67.7346 33.2262 67.7258 33.1356C67.7171 33.045 68.5681 32.3442 69.6168 31.5782C71.1997 30.4222 71.5638 30.0856 71.7588 29.598C72.06 28.8455 72.0513 28.5035 71.7125 27.757C71.2402 26.7169 70.9811 26.6303 68.092 26.5477L65.5554 26.4751L64.8175 24.2683C64.0121 21.8602 63.6395 21.288 62.7082 21.0292C62.1127 20.8638 62.0598 20.8644 61.4387 21.0442ZM22.4559 25.4985C23.1069 27.5424 23.4197 28.1552 23.9732 28.4721C24.1754 28.5878 25.1742 28.6796 26.7367 28.7259L29.1835 28.7986L27.5019 30.0085C24.6669 32.0484 24.6266 32.1589 25.5974 35.2133C25.9664 36.3743 26.2479 37.3439 26.223 37.368C26.1981 37.3921 25.4261 36.8629 24.5076 36.1922C21.8949 34.2839 21.6014 34.284 18.9894 36.1929C18.0709 36.8641 17.3024 37.368 17.2815 37.3125C17.2605 37.2571 17.5391 36.2757 17.9001 35.1318C18.8334 32.1756 18.7924 32.0626 16.0689 30.0765L14.3164 28.7986L16.7619 28.7259C20.1173 28.6263 20.0618 28.6703 21.1149 25.277C21.4186 24.2985 21.7016 23.4997 21.744 23.5017C21.7864 23.5038 22.1068 24.4022 22.4559 25.4985ZM62.9049 25.7649C63.5467 27.7077 63.7796 28.1256 64.4426 28.5228C64.5624 28.5947 65.7614 28.686 67.1073 28.7259L69.5541 28.7986L67.8725 30.0085C65.0305 32.0535 64.9746 32.2077 65.97 35.2532C66.3411 36.3889 66.6232 37.3392 66.5966 37.365C66.57 37.3907 65.7967 36.8629 64.8782 36.1922C62.2625 34.2818 61.9561 34.2818 59.3599 36.1923C58.4414 36.8683 57.6681 37.36 57.6416 37.2851C57.615 37.2102 57.869 36.3214 58.2059 35.3101C59.2066 32.3074 59.1158 32.0368 56.463 30.1055L54.6675 28.7986L57.1227 28.7259C60.4658 28.627 60.4302 28.6554 61.4743 25.2734C61.7769 24.293 62.0704 23.5415 62.1263 23.6034C62.1822 23.6652 62.5327 24.6379 62.9049 25.7649ZM21.8047 44.4079C20.0134 44.6739 19.2198 45.0512 13.5164 48.3485C11.1851 49.6963 9.20967 50.7991 9.12646 50.7991C9.04325 50.7991 8.84633 50.5464 8.68877 50.2376C7.88049 48.6532 6.6624 47.974 5.29154 48.3431C4.59072 48.5318 1.52212 50.2493 0.927747 50.7854C0.0262343 51.5985 -0.24997 52.8574 0.239414 53.9212C0.38652 54.2407 2.57641 58.1616 5.10581 62.6343C7.96457 67.6889 9.8903 70.9411 10.1948 71.2279C10.6832 71.6879 11.4756 71.9987 12.1641 72C12.5979 72.0007 13.7943 71.4432 15.5767 70.4099C17.1757 69.4828 17.3626 69.3223 17.6997 68.5882C18.1281 67.6552 18.0527 66.9431 17.3901 65.6625C16.7398 64.406 16.7277 64.4567 17.8276 63.8373L18.4811 63.4693L25.4516 65.3457C32.8761 67.3442 34.1606 67.6458 35.2302 67.6419C36.2389 67.6381 37.8007 67.2679 38.7988 66.7961C40.0894 66.1861 60.2199 53.758 60.771 53.231C62.0588 51.9999 62.415 49.4535 61.5373 47.7541C60.5927 45.9253 58.2598 45.0592 55.8201 45.6316C54.1394 46.026 53.1272 46.542 46.5082 50.3781C42.9939 52.4148 39.9311 54.1617 39.7018 54.2602C39.3238 54.4225 39.2946 54.4151 39.3875 54.1802C39.9527 52.7517 39.7953 51.2058 38.9619 50.0023C38.1374 48.8116 37.4127 48.4355 34.6346 47.7562C33.2956 47.4287 30.9758 46.7309 29.4793 46.2054C24.1466 44.3327 23.4346 44.1658 21.8047 44.4079ZM27.052 47.7955C30.6838 49.0826 32.0267 49.4979 34.37 50.0583C35.3392 50.2902 36.297 50.5879 36.4986 50.7199C37.1461 51.1442 37.4557 51.8018 37.3861 52.6053C37.334 53.2094 37.2385 53.4009 36.7802 53.821C36.2389 54.317 36.2301 54.3193 35.1277 54.2448C34.4086 54.1961 32.9994 53.8809 31.1151 53.3471C27.4286 52.3025 27.0768 52.2514 26.6072 52.6927C26.1746 53.099 26.127 53.8706 26.5105 54.2541C26.7739 54.5175 30.8994 55.7391 33.7914 56.41C35.8911 56.897 38.3523 57.014 39.6016 56.6859C40.8184 56.3663 40.7694 56.3926 47.3831 52.5332C54.9514 48.117 55.7209 47.7492 57.3896 47.7498C59.2417 47.7502 60.2784 49.3026 59.5406 50.9704C59.2567 51.6126 59.0955 51.7189 48.669 58.1429C40.903 62.9278 37.815 64.7554 37.069 65.0083C35.3482 65.5915 34.7972 65.4986 26.1277 63.16C21.947 62.0322 18.4004 61.1095 18.2463 61.1095C18.0922 61.1095 17.4435 61.4132 16.8049 61.7844C16.1662 62.1554 15.6207 62.4332 15.593 62.4015C15.4901 62.2842 10.4233 53.2962 10.3448 53.0916C10.285 52.9358 11.4741 52.1786 14.8091 50.2491C19.5909 47.4824 20.2101 47.1628 21.4739 46.8083C22.7816 46.4417 23.6812 46.6008 27.052 47.7955ZM10.9484 58.8587C13.5286 63.4112 15.6419 67.2713 15.6446 67.4365C15.6483 67.6709 15.2661 67.952 13.9038 68.7172C12.9438 69.2564 12.0552 69.6767 11.9292 69.6511C11.6361 69.5919 2.38907 53.3203 2.37354 52.8365C2.36352 52.526 2.59645 52.3448 4.10453 51.4904C5.06297 50.9476 5.93936 50.5208 6.05205 50.5423C6.16474 50.5637 8.36798 54.3061 10.9484 58.8587ZM4.67887 53.0434C3.975 53.7471 4.44623 54.8652 5.44664 54.8652C5.97262 54.8652 6.50063 54.3064 6.50063 53.7499C6.50063 53.2881 5.88461 52.6869 5.41149 52.6869C5.20456 52.6869 4.87491 52.8474 4.67887 53.0434Z" fill="rgb(0,208,97)" fill-rule="evenodd" />
</svg>
