<svg viewBox="0 0 72 72" xmlns="http://www.w3.org/2000/svg" xmlns:xlink="http://www.w3.org/1999/xlink" width="72.000000" height="72.000000" fill="none">
	<rect id="Frame 32" width="72.000000" height="72.000000" x="0.000000" y="0.000000" />
	<path id="jar 1 (Traced)" d="M34.272 0.19504C30.5789 0.988218 27.6903 4.31118 27.4167 8.08148C27.2717 10.0789 27.8189 12.1143 28.9258 13.6943L29.4672 14.4672L23.9492 14.5086L18.431 14.5498L17.6501 14.9161C16.5412 15.4362 15.8992 16.0562 15.3822 17.1066C14.9461 17.9922 14.9305 18.0878 14.8682 20.2488L14.804 22.4777L14.435 22.5539C13.6447 22.7172 12.7779 23.4318 12.3775 24.2505C12.0439 24.9323 11.9997 25.1692 12.0477 26.0186C12.0933 26.8271 12.1765 27.1031 12.5212 27.5906C13.0249 28.3027 13.4749 28.6523 14.2149 28.9063L14.7699 29.0968L14.8098 30.4906C14.8632 32.3616 14.714 32.5862 12.7243 33.6295C11.0505 34.507 10.5978 34.805 9.4544 35.7819C7.75061 37.2374 6.0678 39.9845 5.38177 42.4301C5.07425 43.5263 5.06453 43.7716 5.01722 51.5687C4.96413 60.332 4.99032 60.7429 5.74534 62.9547C6.58358 65.4108 8.2823 67.7521 10.379 69.341C11.5513 70.2293 13.7879 71.2841 15.3342 71.6777L16.6005 72L36.173 72L55.7454 72L57.1002 71.6255C58.5005 71.2384 60.2767 70.4281 61.4234 69.6534C62.5626 68.8838 64.5612 66.7377 65.3036 65.487C66.0886 64.1645 66.8578 62.0431 67.0827 60.5805C67.1849 59.9159 67.2201 56.896 67.1879 51.5687C67.1404 43.7309 67.1324 43.532 66.8188 42.4301C66.1104 39.9406 64.4583 37.2407 62.7507 35.7819C61.6073 34.805 61.1546 34.507 59.4808 33.6295C57.491 32.5862 57.3419 32.3616 57.3953 30.4906L57.4351 29.0968L57.9805 28.9097C59.8916 28.2537 60.7388 26.0739 59.8082 24.2067C59.4208 23.4293 58.5367 22.7123 57.7701 22.5539L57.4011 22.4777L57.3369 20.2488C57.2746 18.0878 57.259 17.9922 56.8229 17.1066C56.3059 16.0562 55.6639 15.4362 54.555 14.9161L53.7741 14.5498L48.2559 14.5086L42.7379 14.4672L43.2793 13.6943C44.7915 11.5357 45.2229 8.58431 44.3892 6.10128C44.0014 4.94608 43.5728 4.60983 42.8629 4.9037C42.2628 5.15237 42.0962 5.6866 42.3783 6.45809C42.5049 6.80392 42.6416 7.66103 42.6823 8.36268C42.8079 10.5321 42.1965 12.0465 40.5789 13.5725L39.6176 14.4794L36.1025 14.4794L32.5875 14.4794L31.6262 13.5725C30.0025 12.0408 29.4016 10.5437 29.5179 8.31973C29.5803 7.12863 29.6431 6.8877 30.169 5.82642C31.3222 3.49927 33.5894 2.08667 36.1673 2.08906C37.2241 2.09005 37.8497 2.25367 39.2202 2.88773C40.2101 3.34579 40.3281 3.37029 40.6955 3.19414C40.9151 3.08895 41.1575 2.82437 41.2342 2.6064C41.4585 1.96839 41.1125 1.5309 39.9044 0.924713C38.1181 0.0284626 36.2029 -0.219643 34.272 0.19504ZM35.6429 3.45294C35.5064 3.48857 35.2916 3.71879 35.1656 3.96464C35.0397 4.2105 34.697 4.61814 34.4042 4.87075C33.3714 5.76123 33.154 7.34787 33.9372 8.27862C34.2463 8.64599 35.1818 9.17036 36.4194 9.67023C36.7134 9.78908 36.8066 9.92242 36.8066 10.224C36.8066 10.4424 36.7306 10.6973 36.6376 10.7902C36.402 11.0258 35.3708 11.0013 34.8865 10.7488C34.345 10.4664 34.0974 10.4824 33.6574 10.8287C32.8838 11.4371 33.4276 12.6561 34.5752 12.8856C34.8486 12.9402 35.0072 13.0757 35.0644 13.3038C35.1704 13.7258 35.6297 14.057 36.1093 14.057C36.502 14.057 37.0882 13.5408 37.0882 13.195C37.0882 13.0794 37.3638 12.7904 37.7006 12.553C38.8334 11.7546 39.2455 10.1807 38.6353 8.98435C38.301 8.32888 37.9583 8.07824 36.6133 7.50529C35.5258 7.04217 35.2866 6.70324 35.8618 6.4412C36.1307 6.31855 36.2977 6.33348 36.6393 6.51005C37.2996 6.85151 37.8622 6.79899 38.2044 6.36389C38.3649 6.15986 38.4963 5.88331 38.4963 5.74926C38.4963 5.39118 38.0046 4.82738 37.5154 4.62476C37.2804 4.52746 37.0882 4.3575 37.0882 4.24725C37.0882 3.95479 36.4389 3.35283 36.1441 3.37184C36.0051 3.38085 35.7795 3.41732 35.6429 3.45294ZM53.6679 16.8081C54.9572 17.3469 55.2454 18.0194 55.2495 20.499L55.2526 22.3647L36.1025 22.3647L16.9525 22.3647L16.9525 20.5297C16.9525 18.0877 17.2252 17.4101 18.431 16.8564C18.9676 16.61 19.8019 16.5976 36.0718 16.5947C51.1263 16.592 53.2109 16.6172 53.6679 16.8081ZM57.5008 24.6857C58.0686 24.9793 58.3013 25.7216 58.005 26.2946C57.8836 26.5293 57.6624 26.7867 57.5133 26.8664C57.3321 26.9634 51.8673 27.0115 40.9888 27.0115C24.7584 27.0115 24.7344 27.0119 24.364 27.3034C23.8509 27.7069 23.8509 28.4281 24.364 28.8317C24.7342 29.1229 24.7702 29.1236 39.979 29.1236L55.2229 29.1236L55.2789 30.7781C55.3279 32.2265 55.3809 32.5203 55.7036 33.1367C56.2285 34.1391 56.8011 34.6144 58.5616 35.5093C61.198 36.8495 62.7379 38.3525 63.921 40.7404C65.1098 43.1399 65.1094 43.1364 65.1083 52.1332C65.1073 59.4698 65.0878 60.1125 64.8334 61.1737C64.3241 63.2979 63.4376 64.881 61.8266 66.5436C61.2825 67.105 60.7909 67.5645 60.734 67.5645C60.6771 67.5645 60.8109 67.1356 61.0311 66.6115C62.0278 64.2394 61.9258 61.8426 60.7243 59.3976C60.0104 57.9446 58.612 56.4693 57.2097 55.6894C56.0846 55.0638 54.3963 54.6101 53.1933 54.6101C52.4512 54.6101 52.281 54.5642 52.1556 54.3299C51.9037 53.8594 51.1631 53.5627 50.0477 53.4857L48.9967 53.4132L49.038 52.1276C49.1106 49.8658 48.8323 49.0074 47.8007 48.3122C47.3419 48.003 47.2184 47.992 44.1884 47.992C41.5252 47.992 41.0176 48.0254 40.8299 48.2131C40.4492 48.5937 40.4026 49.105 40.7108 49.518L40.9906 49.893L43.781 49.9313C45.549 49.9555 46.6397 50.0263 46.7581 50.1244C46.8912 50.235 46.9449 50.6978 46.9449 51.7357C46.9449 53.0314 46.9149 53.2082 46.6725 53.3378C46.4967 53.4319 44.2222 53.4836 40.2564 53.4836C36.2907 53.4836 34.0162 53.4319 33.8403 53.3378C33.598 53.2082 33.568 53.0314 33.568 51.7357C33.568 50.7064 33.622 50.2346 33.7526 50.1263C33.8544 50.0418 34.6523 49.9552 35.5331 49.9331C37.0765 49.8942 37.1382 49.8807 37.4085 49.518C37.5991 49.2626 37.6598 49.0301 37.5992 48.7886C37.4146 48.0533 37.2248 47.992 35.1276 47.992C33.3425 47.992 33.1492 48.0177 32.7121 48.3122C31.6523 49.0264 31.3521 50.0432 31.4947 52.435C31.5831 53.917 31.7879 54.4194 32.536 54.99C32.9805 55.329 33.2081 55.3916 34.1554 55.4346L35.2577 55.4848L35.2577 57.23L35.2577 58.9751L34.6381 58.9751L34.0184 58.9751L33.8466 58.2589C33.6273 57.344 33.151 56.8729 31.4443 55.8816C30.2085 55.1639 30.0551 55.1111 29.1919 55.1071C27.8721 55.1011 27.5381 55.3975 26.108 57.8437C25.4726 58.9306 24.9275 59.82 24.8969 59.82C24.8664 59.82 24.6212 59.3831 24.3523 58.849C24.0833 58.3149 23.6942 57.7448 23.4873 57.5821C23.0039 57.2019 22.086 56.9558 21.5506 57.0628C21.3203 57.1089 18.4646 58.3535 15.205 59.8284C10.0328 62.1688 9.21136 62.583 8.75218 63.082L8.22598 63.6538L7.93225 62.9691C7.7706 62.5924 7.51686 61.7772 7.36817 61.1577C7.11823 60.1164 7.09768 59.4339 7.09683 52.1332C7.0957 43.1364 7.09528 43.1399 8.28413 40.7404C9.46721 38.3525 11.0071 36.8495 13.6435 35.5093C15.404 34.6144 15.9765 34.1391 16.5015 33.1367C16.8242 32.5203 16.8772 32.2265 16.9262 30.7781L16.9822 29.1236L18.638 29.1236C20.1 29.1236 20.3374 29.0894 20.6649 28.8317C21.178 28.4281 21.178 27.7069 20.6649 27.3034C20.3192 27.0314 20.1118 27.0115 17.6282 27.0115C16.0693 27.0115 14.8502 26.9513 14.6918 26.8664C14.5427 26.7867 14.3215 26.5293 14.2001 26.2946C13.9127 25.7388 14.1363 24.9852 14.6757 24.6923C15.2498 24.3806 56.8984 24.3741 57.5008 24.6857ZM48.9162 55.5114C48.9162 55.5425 48.6903 55.7012 48.4142 55.8641C47.5596 56.3682 46.712 57.1496 46.0079 58.0814L45.3329 58.9751L41.5203 58.9751C38.7427 58.9751 37.6619 58.9292 37.5388 58.8062C37.4294 58.6968 37.3698 58.1287 37.3698 57.1939C37.3698 55.9677 37.4069 55.7289 37.6162 55.607C37.8489 55.4715 48.9162 55.3779 48.9162 55.5114ZM54.9582 56.989C59.6961 58.4636 61.1645 64.4699 57.6469 67.9875C54.1447 71.4897 48.2855 70.0943 46.6592 65.3706C46.3297 64.4136 46.2654 62.6092 46.5261 61.6293C47.0868 59.5216 48.8011 57.7207 50.9561 56.9755C51.9378 56.636 53.8448 56.6425 54.9582 56.989ZM30.5668 57.8135C31.2087 58.1814 31.7683 58.5713 31.8101 58.68C31.8519 58.7889 30.4419 61.3551 28.6767 64.3828C26.2959 68.4665 25.395 69.8965 25.1877 69.921C24.7685 69.9705 22.6637 68.6679 22.6141 68.3283C22.5789 68.0871 24.355 64.9252 28.1646 58.4471C28.6437 57.6323 29.0183 57.1446 29.165 57.1446C29.294 57.1446 29.9248 57.4455 30.5668 57.8135ZM52.1651 58.3605C52.0046 58.5645 51.8723 58.8022 51.8715 58.8885C51.8705 58.9749 51.6566 59.1835 51.3961 59.3522C50.7121 59.7951 50.2722 60.7774 50.3579 61.6702C50.4558 62.6883 50.7801 63.0385 52.3339 63.8036C53.4749 64.3655 53.7037 64.5323 53.7037 64.8027C53.7037 65.5074 52.6666 65.8357 51.8732 65.382C51.0245 64.8969 50.1835 65.2813 50.1835 66.1542C50.1835 66.7542 50.5337 67.136 51.3588 67.4358C51.6268 67.5332 51.8866 67.7721 52.014 68.0382C52.4468 68.9419 53.623 68.8428 53.9089 67.8782C53.9829 67.6283 54.0916 67.4237 54.1503 67.4237C54.2091 67.4237 54.4911 67.2183 54.7769 66.9673C55.7298 66.1307 56.0525 64.8835 55.5979 63.7953C55.2692 63.0085 54.9307 62.7255 53.6201 62.1415C52.6159 61.6942 52.4292 61.5601 52.4646 61.3124C52.5189 60.9323 53.1693 60.8407 53.6374 61.1474C54.4027 61.6488 55.2526 61.2163 55.2526 60.3254C55.2526 59.9511 55.1516 59.7657 54.795 59.4856C54.1723 58.9967 53.9584 58.7831 53.6619 58.3549C53.3083 57.844 52.5691 57.8468 52.1651 58.3605ZM22.8162 60.4888C23.2489 61.4209 23.4134 61.9257 23.3283 62.0608C23.1832 62.2916 11.9607 67.4237 11.6012 67.4237C11.4363 67.4237 11.1778 67.0296 10.7773 66.1675C10.1546 64.8273 10.0913 64.5484 10.3697 64.3714C10.8533 64.0639 21.7049 59.1406 21.9242 59.1292C22.1133 59.1193 22.3427 59.4691 22.8162 60.4888ZM44.3989 61.6153C44.3314 61.9058 44.2747 62.666 44.2729 63.305L44.2695 64.4667L38.7357 64.4667C34.6194 64.4667 33.1586 64.4235 33.0329 64.2977C32.856 64.1209 32.7892 61.7277 32.9494 61.31C33.0254 61.1119 33.6709 61.0873 38.7782 61.0873L44.5214 61.0873L44.3989 61.6153ZM31.7232 65.9115C32.3011 66.3979 32.977 66.5771 34.2368 66.578L35.2577 66.5788L35.2577 68.2686L35.2577 69.9583L31.5966 69.9583C29.5831 69.9583 27.9356 69.9235 27.9356 69.8811C27.9356 69.787 30.5925 65.1748 30.7954 64.9167C30.907 64.7748 30.9781 64.8242 31.1087 65.1348C31.2017 65.3559 31.4782 65.7054 31.7232 65.9115ZM21.1614 66.3216C20.4182 67.5917 20.2847 68.5773 20.7383 69.4466L21.0223 69.9909L18.7409 69.9211C16.9723 69.8667 16.2258 69.7827 15.4185 69.5465C13.3426 68.9392 13.1842 69.1141 17.6799 67.0517C19.8743 66.0449 21.6911 65.2368 21.7173 65.2555C21.7437 65.2744 21.4934 65.7541 21.1614 66.3216ZM45.2635 67.4181C45.5094 67.8796 46.0579 68.6408 46.4822 69.1096L47.2534 69.9619L42.3469 69.9249L37.4402 69.8879L37.3998 68.4189C37.3776 67.611 37.3915 66.8664 37.4307 66.7644C37.487 66.6174 38.2631 66.5788 41.159 66.5788L44.8162 66.5788L45.2635 67.4181Z" fill="rgb(0,208,97)" fill-rule="evenodd" />
</svg>
