<svg viewBox="0 0 32 32" xmlns="http://www.w3.org/2000/svg" xmlns:xlink="http://www.w3.org/1999/xlink" width="32.000000" height="32.000000" fill="none">
	<rect id="Frame" width="32.000000" height="32.000000" x="0.000000" y="0.000000" fill="rgb(255,255,255)" fill-opacity="0" />
	<path id="Vector" d="M0 0L32 0L32 32L0 32L0 0Z" fill-rule="nonzero" />
	<path id="Vector" d="M29.3346 10.0469L29.3346 22.6669C29.3347 23.6872 28.9449 24.6689 28.2449 25.4112C27.545 26.1536 26.5878 26.6004 25.5693 26.6602L25.3346 26.6669L6.66797 26.6669C5.64769 26.6669 4.66595 26.2771 3.92362 25.5772C3.18129 24.8772 2.73449 23.9201 2.67464 22.9015L2.66797 22.6669L2.66797 10.0469L15.2613 18.4429L15.416 18.5309C15.5982 18.6199 15.7984 18.6662 16.0013 18.6662C16.2042 18.6662 16.4044 18.6199 16.5866 18.5309L16.7413 18.4429L29.3346 10.0469Z" fill="rgb(0,0,0)" fill-rule="nonzero" />
	<path id="Vector" d="M25.3331 5.33325C26.7731 5.33325 28.0358 6.09325 28.7398 7.23592L15.9998 15.7293L3.25977 7.23592C3.59407 6.69294 4.05338 6.23779 4.59938 5.90843C5.14537 5.57907 5.76221 5.38506 6.39843 5.34259L6.66643 5.33325L25.3331 5.33325Z" fill="rgb(0,0,0)" fill-rule="nonzero" />
</svg>
