<svg viewBox="0 0 24 24" xmlns="http://www.w3.org/2000/svg" xmlns:xlink="http://www.w3.org/1999/xlink" width="24.000000" height="24.000000" fill="none">
	<rect id="Frame" width="24.000000" height="24.000000" x="0.000000" y="0.000000" fill="rgb(255,255,255)" fill-opacity="0" />
	<path id="Vector" d="M13.0291 2.00098C14.1545 2.00284 14.7248 2.0088 15.2176 2.02347L15.4117 2.02981C15.6359 2.03778 15.8571 2.04778 16.1238 2.06028C17.1879 2.10945 17.9138 2.27778 18.5513 2.52528C19.2104 2.77945 19.7671 3.12278 20.3229 3.67862C20.8779 4.23445 21.2213 4.79278 21.4763 5.45028C21.7229 6.08695 21.8913 6.81362 21.9413 7.87778C21.9532 8.14445 21.9628 8.36565 21.9707 8.58989L21.977 8.78398C21.9916 9.27672 21.9983 9.84711 22.0004 10.9725L22.0012 11.7181C22.0013 11.8092 22.0013 11.9032 22.0013 12.0002L22.0012 12.2823L22.0006 13.028C21.9987 14.1534 21.9928 14.7238 21.9781 15.2165L21.9717 15.4106C21.9638 15.6349 21.9538 15.8561 21.9413 16.1227C21.8921 17.1869 21.7229 17.9127 21.4763 18.5502C21.2221 19.2094 20.8779 19.7661 20.3229 20.3219C19.7671 20.8769 19.2079 21.2202 18.5513 21.4752C17.9138 21.7219 17.1879 21.8902 16.1238 21.9402C15.8571 21.9521 15.6359 21.9618 15.4117 21.9696L15.2176 21.9759C14.7248 21.9906 14.1545 21.9972 13.0291 21.9994L12.2834 22.0002C12.1923 22.0002 12.0983 22.0002 12.0013 22.0002L11.7192 22.0002L10.9735 21.9995C9.84807 21.9977 9.27769 21.9917 8.78494 21.977L8.59086 21.9707C8.36661 21.9627 8.14541 21.9527 7.87875 21.9402C6.81458 21.8911 6.08958 21.7219 5.45125 21.4752C4.79291 21.2211 4.23541 20.8769 3.67958 20.3219C3.12375 19.7661 2.78125 19.2069 2.52625 18.5502C2.27875 17.9127 2.11125 17.1869 2.06125 16.1227C2.04937 15.8561 2.03968 15.6349 2.03183 15.4106L2.02554 15.2165C2.01091 14.7238 2.00424 14.1534 2.00208 13.028L2.00195 10.9725C2.00381 9.84711 2.00976 9.27672 2.02443 8.78398L2.03078 8.58989C2.03875 8.36565 2.04875 8.14445 2.06125 7.87778C2.11041 6.81278 2.27875 6.08778 2.52625 5.45028C2.78041 4.79195 3.12375 4.23445 3.67958 3.67862C4.23541 3.12278 4.79375 2.78028 5.45125 2.52528C6.08875 2.27778 6.81375 2.11028 7.87875 2.06028C8.14541 2.04841 8.36661 2.03872 8.59086 2.03087L8.78494 2.02458C9.27769 2.00994 9.84807 2.00327 10.9735 2.00111L13.0291 2.00098ZM12.0013 7.00028C9.23835 7.00028 7.00125 9.23981 7.00125 12.0002C7.00125 14.7631 9.24078 17.0002 12.0013 17.0002C14.7642 17.0002 17.0013 14.7607 17.0013 12.0002C17.0013 9.23738 14.7617 7.00028 12.0013 7.00028ZM12.0013 9.00028C13.6582 9.00028 15.0013 10.3429 15.0013 12.0002C15.0013 13.6571 13.6586 15.0002 12.0013 15.0002C10.3444 15.0002 9.00125 13.6576 9.00125 12.0002C9.00125 10.3433 10.3439 9.00028 12.0013 9.00028ZM17.2513 5.50028C16.562 5.50028 16.0013 6.06019 16.0013 6.74943C16.0013 7.43868 16.5612 7.99945 17.2513 7.99945C17.9405 7.99945 18.5013 7.43955 18.5013 6.74943C18.5013 6.06019 17.9396 5.49942 17.2513 5.50028Z" fill="rgb(0,0,0)" fill-rule="nonzero" />
</svg>
