<svg viewBox="0 0 24 24" xmlns="http://www.w3.org/2000/svg" xmlns:xlink="http://www.w3.org/1999/xlink" width="24.000000" height="24.000000" fill="none">
	<rect id="Frame" width="24.000000" height="24.000000" x="0.000000" y="0.000000" fill="rgb(255,255,255)" fill-opacity="0" />
	<path id="Vector" d="M6.94146 4.99993C6.94109 5.81424 6.44706 6.54702 5.69232 6.85273C4.93758 7.15845 4.07285 6.97605 3.50588 6.39155C2.93891 5.80704 2.78293 4.93715 3.11148 4.19207C3.44004 3.44699 4.18752 2.9755 5.00146 2.99993C6.08253 3.03238 6.94195 3.91837 6.94146 4.99993ZM7.00146 8.47993L3.00146 8.47993L3.00146 20.9999L7.00146 20.9999L7.00146 8.47993ZM13.3215 8.47993L9.34146 8.47993L9.34146 20.9999L13.2815 20.9999L13.2815 14.4299C13.2815 10.7699 18.0515 10.4299 18.0515 14.4299L18.0515 20.9999L22.0015 20.9999L22.0015 13.0699C22.0015 6.89993 14.9415 7.12993 13.2815 10.1599L13.3215 8.47993Z" fill="rgb(0,0,0)" fill-rule="nonzero" />
</svg>
