<svg viewBox="0 0 32 32" xmlns="http://www.w3.org/2000/svg" xmlns:xlink="http://www.w3.org/1999/xlink" width="32.000000" height="32.000000" fill="none">
	<rect id="Frame" width="32.000000" height="32.000000" x="0.000000" y="0.000000" fill="rgb(255,255,255)" fill-opacity="0" />
	<path id="Vector" d="M0 0L32 0L32 32L0 32L0 0Z" fill-rule="nonzero" />
	<path id="Vector" d="M24.4854 6.18124C26.6885 8.38409 27.9485 11.3574 27.999 14.4725C28.0496 17.5875 26.8866 20.6001 24.7561 22.8732L24.4854 23.1532L18.8281 28.8092C18.1102 29.5266 17.1466 29.9443 16.1323 29.9777C15.118 30.0112 14.1289 29.6578 13.3654 28.9892L13.1734 28.8092L7.51474 23.1519C5.26429 20.9015 4 17.8492 4 14.6666C4 11.484 5.26429 8.43169 7.51474 6.18124C9.76519 3.93079 12.8175 2.6665 16.0001 2.6665C19.1827 2.6665 22.235 3.93079 24.4854 6.18124ZM16.0001 10.6666C15.4748 10.6666 14.9546 10.77 14.4693 10.9711C13.984 11.1721 13.5431 11.4667 13.1716 11.8382C12.8002 12.2096 12.5056 12.6505 12.3046 13.1358C12.1035 13.6211 12.0001 14.1413 12.0001 14.6666C12.0001 15.1919 12.1035 15.712 12.3046 16.1973C12.5056 16.6826 12.8002 17.1236 13.1716 17.495C13.5431 17.8664 13.984 18.1611 14.4693 18.3621C14.9546 18.5631 15.4748 18.6666 16.0001 18.6666C17.0609 18.6666 18.0784 18.2452 18.8285 17.495C19.5786 16.7449 20.0001 15.7274 20.0001 14.6666C20.0001 13.6057 19.5786 12.5883 18.8285 11.8382C18.0784 11.088 17.0609 10.6666 16.0001 10.6666Z" fill="rgb(0,0,0)" fill-rule="nonzero" />
</svg>
