<svg viewBox="0 0 80 80" xmlns="http://www.w3.org/2000/svg" xmlns:xlink="http://www.w3.org/1999/xlink" width="80.000000" height="80.000000" fill="none">
	<rect id="Frame 32" width="80.000000" height="80.000000" x="0.000000" y="0.000000" />
	<path id="energy-saving 1 (Traced)" d="M13.9968 0.0626542C12.2915 0.388368 11.0413 1.89113 10.8595 3.83381C10.7713 4.77825 10.7208 4.90148 10.4202 4.90454C9.78661 4.91115 8.72226 5.51699 8.39097 6.05952C8.12952 6.488 8.06565 6.87268 8.06516 8.02314C8.06419 10.0633 8.5771 10.8014 10.2073 11.1069L10.8065 11.2192L10.8065 12.7104L10.8065 14.2015L10.1552 14.2887C9.34581 14.3971 8.78742 14.7531 8.38 15.4205C7.92645 16.1636 7.93016 18.4518 8.38629 19.1987C8.7921 19.8635 9.60565 20.3637 10.2823 20.3645L10.8065 20.3651L10.8065 21.6332L10.8065 22.9011L9.04097 22.9737C7.43306 23.0399 7.20677 23.0889 6.505 23.5222C6.03984 23.8095 5.54484 24.3043 5.25613 24.7705C4.81597 25.4815 4.77242 25.6885 4.7079 27.3686L4.63806 29.1942L3.22081 29.2498C1.92484 29.3005 1.7521 29.3471 1.20097 29.7926C0.869677 30.0607 0.463871 30.5307 0.299193 30.8371C0.0129032 31.3706 0 32.1767 0 49.645C0 64.609 0.0391935 67.9894 0.217903 68.4164C0.496774 69.0828 1.44597 69.9171 2.08484 70.0572L2.58065 70.1659L2.58065 74.1586C2.58065 77.9538 2.5971 78.172 2.915 78.5755L3.24919 79L9.98774 79L16.7261 79L19.1605 77.067L21.5947 75.134L40.01 75.134L58.4253 75.134L60.8461 77.067L63.2668 79L70.0089 79L76.7508 79L77.085 78.5755C77.4029 78.172 77.4193 77.9538 77.4193 74.1586L77.4193 70.1659L77.9152 70.0572C78.554 69.9171 79.5032 69.0828 79.7821 68.4164C79.9608 67.9894 80 64.609 80 49.645C80 32.1767 79.9871 31.3706 79.7008 30.8371C79.5361 30.5307 79.1303 30.0607 78.799 29.7926C78.2479 29.3471 78.0752 29.3005 76.7792 29.2498L75.3619 29.1942L75.2921 27.3686C75.2276 25.6885 75.184 25.4815 74.7439 24.7705C74.4552 24.3043 73.9602 23.8095 73.495 23.5222C72.7932 23.0889 72.5669 23.0399 70.959 22.9737L69.1936 22.9011L69.1936 21.6541L69.1936 20.407L69.9294 20.3242C71.3224 20.1673 71.9358 19.234 71.9348 17.2723C71.934 15.3472 71.3321 14.488 69.8448 14.2887L69.1936 14.2015L69.1936 12.7104L69.1936 11.2192L69.7927 11.1069C71.4229 10.8014 71.9358 10.0633 71.9348 8.02314C71.9344 6.87268 71.8705 6.488 71.609 6.05952C71.2726 5.50861 70.2105 4.91098 69.5564 4.90454C69.2339 4.90132 69.1936 4.81965 69.1936 4.16806C69.1936 2.58041 68.2281 1.84925 67.1992 2.65757C66.8255 2.95107 66.7742 3.10651 66.7742 3.94625L66.7742 4.901L65.4614 4.901L64.1485 4.901L64.2471 4.0706C64.3673 3.05754 64.8002 2.54674 65.6621 2.40128C66.6835 2.22892 67.2487 1.2186 66.7156 0.517719C66.05 -0.357133 64.1908 -0.0460781 63.0047 1.1387C62.3205 1.82202 61.9605 2.65048 61.8408 3.81754L61.7332 4.86636L61.1489 4.96221C59.6521 5.20786 59.0323 6.10962 59.0323 8.04215C59.0323 9.96631 59.6289 10.8218 61.1694 11.1071L61.7742 11.2192L61.7742 12.7104L61.7742 14.2015L61.1229 14.2887C60.3135 14.3971 59.7552 14.7531 59.3477 15.4205C58.8942 16.1636 58.8979 18.4518 59.354 19.1987C59.7598 19.8635 60.5734 20.3637 61.25 20.3645L61.7742 20.3651L61.7742 21.6538L61.7742 22.9425L52.7419 22.9425L43.7097 22.9425L43.7097 21.6538L43.7097 20.3651L44.2339 20.3645C44.9105 20.3637 45.724 19.8635 46.1298 19.1987C46.586 18.4518 46.5897 16.1636 46.1361 15.4205C45.7287 14.7531 45.1703 14.3971 44.361 14.2887L43.7097 14.2015L43.7097 12.7065L43.7097 11.2117L44.3281 11.1073C45.8547 10.8497 46.4516 9.98805 46.4516 8.04215C46.4516 6.1006 45.8327 5.20786 44.3145 4.95899C43.7218 4.86185 43.7097 4.84558 43.7097 4.1476C43.7097 3.35813 43.3777 2.57735 42.9766 2.42367C41.9695 2.03771 41.2903 2.66675 41.2903 3.98507L41.2903 4.901L39.9776 4.901L38.6647 4.901L38.7632 4.0706C38.8834 3.05754 39.3163 2.54674 40.1782 2.40128C40.5715 2.33492 40.9256 2.14258 41.1284 1.88517C41.5 1.41335 41.5232 1.20716 41.2681 0.647875C40.8847 -0.192504 39.4718 -0.190893 38.1184 0.65158C37.1137 1.27691 36.4761 2.41465 36.345 3.81674L36.2469 4.86669L35.6637 4.96237C34.1682 5.20786 33.5484 6.11026 33.5484 8.04215C33.5484 9.96631 34.145 10.8218 35.6855 11.1071L36.2903 11.2192L36.2903 12.7104L36.2903 14.2015L35.639 14.2887C34.8297 14.3971 34.2713 14.7531 33.8639 15.4205C33.4103 16.1636 33.414 18.4518 33.8702 19.1987C34.276 19.8635 35.0895 20.3637 35.7661 20.3645L36.2903 20.3651L36.2903 21.6538L36.2903 22.9425L27.2581 22.9425L18.2258 22.9425L18.2258 21.6538L18.2258 20.3651L18.75 20.3645C19.4266 20.3637 20.2402 19.8635 20.646 19.1987C21.1021 18.4518 21.1058 16.1636 20.6523 15.4205C20.2448 14.7531 19.6865 14.3971 18.8771 14.2887L18.2258 14.2015L18.2258 12.7065L18.2258 11.2117L18.8442 11.1073C20.3708 10.8497 20.9677 9.98805 20.9677 8.04215C20.9677 6.1006 20.3489 5.20786 18.8306 4.95899C18.2577 4.86507 18.2258 4.82803 18.2258 4.26004C18.2258 3.00648 17.756 2.32364 16.8935 2.32364C16.214 2.32364 15.8065 2.94655 15.8065 3.98507L15.8065 4.901L14.4956 4.901L13.1848 4.901L13.2627 4.09026C13.3587 3.09363 13.8205 2.54884 14.6944 2.40128C15.3585 2.28933 15.9677 1.70652 15.9677 1.18332C15.9677 0.812021 15.3405 0.11694 14.9194 0.0212554C14.7419 -0.0190158 14.3268 -0.000329971 13.9968 0.0626542ZM18.5484 8.04215L18.5484 8.76703L14.5331 8.76703L10.5177 8.76703L10.4555 8.11432C10.4211 7.75526 10.4256 7.42906 10.4653 7.38944C10.5052 7.34981 12.34 7.31727 14.5431 7.31727L18.5484 7.31727L18.5484 8.04215ZM44.0323 8.04215L44.0323 8.76703L40 8.76703L35.9677 8.76703L35.9677 8.04215L35.9677 7.31727L40 7.31727L44.0323 7.31727L44.0323 8.04215ZM69.5161 8.04215L69.5161 8.76703L65.4839 8.76703L61.4516 8.76703L61.4516 8.04215L61.4516 7.31727L65.4839 7.31727L69.5161 7.31727L69.5161 8.04215ZM15.8065 12.7136L15.8065 14.2439L14.5161 14.2439L13.2258 14.2439L13.2258 12.7136L13.2258 11.1833L14.5161 11.1833L15.8065 11.1833L15.8065 12.7136ZM41.2903 12.7136L41.2903 14.2439L40 14.2439L38.7097 14.2439L38.7097 12.7136L38.7097 11.1833L40 11.1833L41.2903 11.1833L41.2903 12.7136ZM66.7742 12.7204L66.7742 14.2574L65.5242 14.2104L64.2742 14.1634L64.2277 12.6733L64.1814 11.1833L65.4777 11.1833L66.7742 11.1833L66.7742 12.7204ZM18.5484 17.3045L18.5484 17.9489L14.5331 17.9489L10.5177 17.9489L10.4563 17.3045L10.3947 16.6602L14.4716 16.6602L18.5484 16.6602L18.5484 17.3045ZM44.0323 17.3045L44.0323 17.9489L40 17.9489L35.9677 17.9489L35.9677 17.3045L35.9677 16.6602L40 16.6602L44.0323 16.6602L44.0323 17.3045ZM69.5161 17.3045L69.5161 17.9489L65.4839 17.9489L61.4516 17.9489L61.4516 17.3045L61.4516 16.6602L65.4839 16.6602L69.5161 16.6602L69.5161 17.3045ZM15.7729 21.6941L15.82 22.9425L14.5229 22.9425L13.2258 22.9425L13.2258 21.7613C13.2258 21.1114 13.2771 20.5286 13.3397 20.4661C13.4024 20.4036 13.9648 20.3734 14.5897 20.399L15.7258 20.4457L15.7729 21.6941ZM41.2568 21.6941L41.3039 22.9425L40.0068 22.9425L38.7097 22.9425L38.7097 21.7613C38.7097 21.1114 38.761 20.5286 38.8235 20.4661C38.8863 20.4036 39.4487 20.3734 40.0735 20.399L41.2097 20.4457L41.2568 21.6941ZM66.7406 21.6941L66.7877 22.9425L65.4906 22.9425L64.1936 22.9425L64.1936 21.7613C64.1936 21.1114 64.2448 20.5286 64.3074 20.4661C64.3702 20.4036 64.9326 20.3734 65.5574 20.399L66.6936 20.4457L66.7406 21.6941ZM72.5073 25.7542C72.8724 26.1188 72.9032 26.2694 72.9032 27.6872L72.9032 29.2248L40 29.2248L7.09677 29.2248L7.09677 27.6872C7.09677 26.2694 7.12758 26.1188 7.49274 25.7542L7.88855 25.3588L40 25.3588L72.1115 25.3588L72.5073 25.7542ZM77.541 49.7228L77.5 67.8046L40 67.8046L2.5 67.8046L2.45903 49.7228L2.4179 31.6411L40 31.6411L77.5821 31.6411L77.541 49.7228ZM7.20242 34.9963C6.95823 35.2656 6.93548 36.5086 6.93548 49.5627L6.93548 63.8347L7.3721 64.1776C7.88274 64.5787 8.47597 64.5082 8.91129 63.9945C9.17548 63.6826 9.19355 62.7528 9.19355 49.5036C9.19355 35.5607 9.18871 35.3412 8.87097 35.0239C8.45903 34.6124 7.56355 34.5978 7.20242 34.9963ZM15.0653 35.0408C14.7681 35.3687 14.7581 35.8415 14.7581 49.5524L14.7581 63.7248L15.2244 64.1254C15.7623 64.5874 16.3532 64.5388 16.8145 63.9945C17.0787 63.6826 17.0968 62.7528 17.0968 49.5036C17.0968 35.5607 17.0919 35.3412 16.7742 35.0239C16.3395 34.5897 15.4663 34.5983 15.0653 35.0408ZM22.915 35.1261C22.5826 35.548 22.5806 35.6321 22.5806 49.4551C22.5806 59.4461 22.6319 63.4721 22.7629 63.759C23.1356 64.5763 24.4148 64.649 24.8289 63.8764C25.0806 63.4063 25.0668 35.7739 24.8145 35.2951C24.5635 34.8188 24.3645 34.707 23.7618 34.7041C23.3984 34.7023 23.1519 34.8252 22.915 35.1261ZM54.4605 34.9963C54.2163 35.2656 54.1935 36.5086 54.1935 49.5627L54.1935 63.8347L54.6185 64.1684C55.1547 64.5897 55.4905 64.5897 56.0266 64.1684L56.4516 63.8347L56.4516 49.6262C56.4516 33.7307 56.524 34.7017 55.3384 34.7017C54.9513 34.7017 54.6295 34.8096 54.4605 34.9963ZM62.3637 34.9963C62.1195 35.2656 62.0968 36.5086 62.0968 49.5627L62.0968 63.8347L62.5334 64.1776C63.044 64.5787 63.6373 64.5082 64.0726 63.9945C64.3368 63.6826 64.3548 62.7528 64.3548 49.5036C64.3548 35.5607 64.35 35.3412 64.0323 35.0239C63.6203 34.6124 62.7248 34.5978 62.3637 34.9963ZM70.2266 35.0408C69.9302 35.3678 69.9179 35.8704 69.8763 49.337C69.8458 59.2336 69.885 63.4191 70.0111 63.7234C70.3619 64.5697 71.664 64.6657 72.0869 63.8764C72.2039 63.6583 72.2581 59.0862 72.2581 49.4516C72.2581 35.5607 72.2532 35.3412 71.9355 35.0239C71.5008 34.5897 70.6276 34.5983 70.2266 35.0408ZM40.99 39.4807C40.7171 39.7317 38.6795 42.4015 36.4618 45.4138C32.1511 51.2693 32.01 51.5289 32.7419 52.2599C33.0255 52.5431 33.2795 52.5821 34.8387 52.5821L36.6129 52.5821L36.6097 53.1056C36.6081 53.3936 36.4998 54.5715 36.3694 55.7232C36.0197 58.8116 36.0405 59.2547 36.554 59.6581C37.1418 60.1199 37.4952 60.0775 38.1381 59.4685C38.8158 58.8267 46.4008 49.1648 46.6419 48.6362C46.7373 48.4274 46.7685 48.0712 46.7116 47.8449C46.5539 47.2168 45.8495 46.9441 44.3852 46.9441L43.1094 46.9441L43.0302 43.3883C42.9585 40.1697 42.9221 39.8042 42.6448 39.5325C42.0903 38.989 41.5435 38.9719 40.99 39.4807ZM41.1181 48.9377C41.3294 49.1489 41.7448 49.3021 42.2519 49.3559L43.0523 49.4409L41.0826 51.968C39.9992 53.358 39.0766 54.4998 39.0323 54.5053C38.9879 54.5109 39.0192 53.7074 39.1018 52.7198L39.2519 50.9242L38.8105 50.545C38.4326 50.2204 38.1966 50.1658 37.171 50.1658L35.9727 50.1658L38.2687 47.069L40.5645 43.9723L40.6745 46.2883C40.7715 48.3303 40.8239 48.6441 41.1181 48.9377ZM75 73.4426L75 76.7448L69.6198 76.7448L64.2398 76.7448L61.6903 74.7313L59.141 72.7177L39.9974 72.7177L20.8539 72.7177L18.3224 74.7313L15.791 76.7448L10.3955 76.7448L5 76.7448L5 73.4426L5 70.1403L40 70.1403L75 70.1403L75 73.4426Z" fill="rgb(0,208,97)" fill-rule="evenodd" />
</svg>
