<svg width="72" height="72" viewBox="0 0 72 72" fill="none" xmlns="http://www.w3.org/2000/svg">
<g clip-path="url(#clip0_2014_607)">
<path fill-rule="evenodd" clip-rule="evenodd" d="M0 1.05469V2.10938H1.96875H3.9375V4.42969V6.75H1.96875H0V7.875V9H1.96875H3.9375V11.25V13.5H1.96875H0V14.625V15.75H1.96875H3.9375V18V20.25H1.96875H0V21.375V22.5H1.96875H3.9375V24.8203V27.1406H1.96875H0V28.1953V29.25H1.96875H3.9375V31.5703V33.8906H1.96875H0V34.9453V36H1.96875H3.9375V38.3203V40.6406H1.96875H0V41.7656V42.8906H15.3281H30.6562V47.5312V52.1719H31.2188H31.7812V62.0859V72H32.8359H33.8906V62.0859V52.1719H36H38.1094V62.0859V72H39.1641H40.2188V62.0859V52.1719H40.7812H41.3438V47.5325V42.8932L48.5508 42.8567L55.7578 42.8203L55.7989 41.7305L55.8399 40.6406H48.5918H41.3438V38.8138V36.9868L49.043 36.9505L56.7422 36.9141L56.7786 29.707L56.815 22.5H36H15.185L15.2214 29.707L15.2578 36.9141L22.957 36.9505L30.6562 36.9868V38.8138V40.6406H18.4219H6.1875V21.375V2.10938H15.3984H24.6094V1.05469V0H12.3047H0V1.05469ZM26.7188 1.05469V2.10938H46.2656H65.8125V21.375V40.6406H61.7988H57.7851L57.8261 41.7305L57.8672 42.8203L64.9336 42.8567L72 42.8932V41.7669V40.6406H70.0312H68.0625V38.3203V36H70.0312H72V34.9453V33.8906H70.0312H68.0625V31.5703V29.25H70.0312H72V28.1953V27.1406H70.0312H68.0625V24.8203V22.5H70.0312H72V21.375V20.25H70.0312H68.0625V18V15.75H70.0312H72V14.625V13.5H70.0312H68.0625V11.25V9H70.0312H72V7.875V6.75H70.0312H68.0625V4.42969V2.10938H70.0312H72V1.05469V0H49.3594H26.7188V1.05469ZM17.4842 4.75172C16.2716 5.18513 15.4488 5.9497 14.9753 7.08286C14.7926 7.52006 14.6873 7.59009 13.996 7.73353C13.0139 7.93744 12.0111 8.61848 11.4296 9.47672C10.244 11.2261 10.4428 13.2754 11.9441 14.7783C12.8852 15.7203 13.76 16.0692 15.0493 16.0166C15.8691 15.9832 15.9185 16.0009 16.3036 16.4683C17.2796 17.6522 19.2556 18.1655 20.8274 17.6435C21.8326 17.3097 23.0557 16.1083 23.3893 15.1273C23.8231 13.8516 23.6687 12.5238 22.9551 11.3947L22.5622 10.7731L22.8274 9.99211C23.2935 8.61891 22.9506 7.01128 21.9482 5.86955C20.9399 4.72134 18.9579 4.22494 17.4842 4.75172ZM30.6899 4.82836C28.6266 5.57662 27.9284 8.17959 29.3465 9.83616C30.0289 10.6335 30.7913 10.9969 31.7812 10.9969C34.1743 10.9969 35.695 8.47772 34.5957 6.33473C33.9065 4.9912 32.13 4.30608 30.6899 4.82836ZM45.7031 5.60742C43.8697 6.21112 42.6137 7.82395 42.6108 9.57895C42.6094 10.3444 42.5919 10.3804 42.0457 10.7418C40.4169 11.8198 39.7905 14.121 40.6363 15.9202C41.6039 17.9788 44.2025 18.9475 46.1953 17.9925C47.635 17.3026 48.654 15.7472 48.6581 14.2329C48.6598 13.6063 48.702 13.5333 49.4352 12.8903C50.5419 11.9197 50.9617 11.0422 50.9598 9.70312C50.9587 8.88061 50.8843 8.49487 50.6219 7.95122C50.1917 7.06008 49.3684 6.23784 48.5388 5.87095C47.8364 5.56017 46.2846 5.41603 45.7031 5.60742ZM19.9267 7.02562C20.5421 7.40067 20.837 8.02153 20.7848 8.83153L20.7422 9.49219L19.5948 9.48291L18.4475 9.47348L17.6787 8.77092C16.9262 8.08313 16.9141 8.06006 17.1115 7.68333C17.5747 6.79936 19.007 6.46467 19.9267 7.02562ZM32.5467 7.20323C32.8826 7.68262 32.8215 8.23247 32.3951 8.56786C32.1913 8.72817 31.9151 8.85938 31.7812 8.85938C31.3591 8.85938 30.7969 8.30925 30.7969 7.89609C30.7969 7.2592 31.1577 6.89062 31.7812 6.89062C32.1867 6.89062 32.3844 6.97134 32.5467 7.20323ZM47.8865 8.01787C48.6426 8.48517 48.9984 9.57783 48.6728 10.4323C48.6045 10.6113 48.3756 10.9306 48.1641 11.1419L47.7795 11.526L47.1416 10.9647C46.7369 10.6083 46.1907 10.3061 45.6465 10.1372C44.8443 9.88833 44.7919 9.84614 44.8334 9.48108C44.9976 8.03798 46.6429 7.24936 47.8865 8.01787ZM16.1422 10.3126L16.5094 10.6798L16.2165 11.0001C15.7766 11.4809 15.4385 12.2151 15.2594 13.0781C15.0999 13.8459 15.0953 13.8513 14.6157 13.8137C12.7567 13.6679 12.2553 10.9527 13.9267 10.0821C14.6244 9.71859 15.6555 9.82589 16.1422 10.3126ZM20.3858 11.9183C22.161 12.8136 21.4872 15.6562 19.4999 15.6562C18.7113 15.6562 18.0024 15.2519 17.6839 14.6202C16.7943 12.8569 18.6225 11.0287 20.3858 11.9183ZM55.5469 12.0367C53.4322 12.9527 52.9827 15.8957 54.7321 17.3708C55.3801 17.9172 55.9839 18.1406 56.8125 18.1406C58.429 18.1406 59.7258 16.998 59.9909 15.3404C60.1867 14.1162 59.3436 12.617 58.1563 12.0777C57.4605 11.7617 56.2265 11.7423 55.5469 12.0367ZM45.5341 12.4633C46.761 13.2538 46.6591 15.3311 45.3632 15.946C44.4783 16.3659 43.6186 16.1798 42.9023 15.4129C42.42 14.8965 42.3418 13.7478 42.7451 13.1051C43.3117 12.2025 44.6508 11.8943 45.5341 12.4633ZM33.1827 13.8205C31.5228 14.6201 30.7671 16.5095 31.483 18.0703C32.5657 20.4306 35.7553 20.6267 37.0993 18.4158C37.5303 17.7067 37.5622 17.5728 37.5195 16.6514C37.4649 15.4699 37.0522 14.7194 36.117 14.1005C35.6375 13.7832 35.355 13.7083 34.5361 13.6815C33.9699 13.663 33.3851 13.723 33.1827 13.8205ZM57.4263 14.2134C58.176 14.803 57.7565 15.9375 56.7887 15.9375C55.8883 15.9375 55.4892 14.7714 56.1987 14.2134C56.4024 14.0531 56.6786 13.9219 56.8125 13.9219C56.9464 13.9219 57.2226 14.0531 57.4263 14.2134ZM34.7981 15.8881C35.5728 16.1827 35.5434 17.4234 34.7553 17.6902C33.8521 17.9959 33.0978 17.166 33.5261 16.3377C33.7164 15.9695 33.8998 15.8406 34.3385 15.7663C34.3915 15.7573 34.5983 15.8122 34.7981 15.8881ZM54.5625 29.7422V34.7344H47.9531H41.3438V33.3577C41.3438 31.6371 41.0673 30.5281 40.391 29.5363C39.4156 28.1056 37.6469 27.1406 36 27.1406C34.3531 27.1406 32.5844 28.1056 31.609 29.5363C30.9327 30.5281 30.6562 31.6371 30.6562 33.3577V34.7344H24.0469H17.4375V29.7422V24.75H36H54.5625V29.7422ZM37.3417 29.655C37.9703 29.9405 38.6132 30.6255 38.9042 31.3197C39.0566 31.6835 39.0938 33.5513 39.0938 40.8471V49.9219H36H32.9062V40.8471C32.9062 31.0172 32.8816 31.3462 33.6877 30.3902C34.2274 29.7501 35.0497 29.3968 36 29.3968C36.4503 29.3968 37.011 29.5047 37.3417 29.655ZM34.875 37.5469V38.6719H36H37.125V37.5469V36.4219H36H34.875V37.5469ZM34.875 41.7656V42.8906H36H37.125V41.7656V40.6406H36H34.875V41.7656ZM63.0193 45.8873C61.7408 46.3725 60.8625 47.6148 60.8625 48.9375C60.8625 51.3305 63.3817 52.8512 65.5246 51.752C67.2751 50.8541 67.7513 48.4419 66.4822 46.9022C65.6951 45.9474 64.0959 45.4787 63.0193 45.8873ZM21.6188 46.9735C19.0481 47.6162 17.6473 50.4028 18.7231 52.7344C19.4514 54.3125 20.5753 55.1154 22.2211 55.2331C23.4813 55.3233 24.3885 55.015 25.3153 54.1817C26.286 53.3088 26.6098 52.6327 26.6887 51.3131C26.745 50.3681 26.7072 50.1424 26.3641 49.3778C25.5452 47.553 23.4821 46.5076 21.6188 46.9735ZM50.7656 48.0379C46.5382 49.169 45.0831 54.4828 48.1587 57.5584C51.4666 60.8663 56.9624 59.0882 57.8288 54.4297C58.2448 52.1927 56.9697 49.6524 54.8771 48.5495C53.4973 47.8223 52.183 47.6588 50.7656 48.0379ZM64.6561 48.1721C64.888 48.3344 64.9688 48.5321 64.9688 48.9375C64.9688 49.561 64.6002 49.9219 63.9633 49.9219C63.5501 49.9219 63 49.3597 63 48.9375C63 48.8036 63.1312 48.5274 63.2915 48.3237C63.6269 47.8973 64.1768 47.8361 64.6561 48.1721ZM23.3976 49.2732C23.6544 49.3805 24.0119 49.6752 24.192 49.9281C25.0997 51.203 24.1515 53.0625 22.5937 53.0625C21.0462 53.0625 20.0945 51.5655 20.7776 50.2059C21.2694 49.227 22.359 48.8392 23.3976 49.2732ZM53.6563 50.3963C56.5125 51.7264 56.2946 55.8636 53.3149 56.8789C50.7351 57.7579 48.1885 55.4681 48.7845 52.8054C49.2735 50.6204 51.6323 49.4539 53.6563 50.3963ZM15.8906 55.8723C15.1493 56.1073 14.1555 57.1736 13.931 57.9752C13.4287 59.7693 14.5166 61.6074 16.3125 61.9986C18.6382 62.5053 20.7368 60.2841 20.0561 58.0366C19.5109 56.2365 17.7037 55.2975 15.8906 55.8723ZM17.7188 58.2188C18.0989 58.5989 18.0728 59.1429 17.6548 59.561C17.2346 59.9813 16.7504 60.0029 16.3391 59.6195C15.9684 59.2741 15.9308 58.5627 16.264 58.1947C16.5788 57.8468 17.3596 57.8596 17.7188 58.2188Z" fill="#00C2FF"/>
</g>
<defs>
<clipPath id="clip0_2014_607">
<rect width="72" height="72" fill="white"/>
</clipPath>
</defs>
</svg>
