<svg width="72" height="72" viewBox="0 0 72 72" fill="none" xmlns="http://www.w3.org/2000/svg">
<path fill-rule="evenodd" clip-rule="evenodd" d="M10.5292 0.33597L10.2136 0.672085V13.1127V25.5534H8.81483C7.12511 25.5534 6.47974 25.7291 5.69179 26.4035C4.49078 27.4315 4.07278 29.2266 4.70624 30.6351C4.8841 31.0304 5.54777 31.8399 6.38696 32.6846L7.77382 34.0809L7.5103 36.0128C7.24867 37.931 7.24242 37.9499 6.62595 38.6719C5.16679 40.3816 2.81631 45.8378 1.88694 49.6727C1.10626 52.8946 0.993591 54.0457 1.00027 58.7294C1.00666 63.2348 1.25871 66.4873 1.73725 68.2393C2.20491 69.9515 3.80127 71.5081 5.46007 71.8693C5.98363 71.9835 8.14449 72.0205 12.3914 71.9884L18.562 71.9417L19.3321 71.5151C20.683 70.7666 21.6223 69.4524 21.7845 68.0842L21.8693 67.3682H40.762H59.6549L61.6029 69.3203C64.0088 71.7311 64.6465 72.086 66.3921 71.9849C68.8181 71.8445 70.4361 70.2238 70.5816 67.7882C70.6854 66.05 70.3292 65.4101 67.9186 63.0045L65.9666 61.0565V30.8845V0.712738L65.6101 0.356441L65.2538 0H38.0494H10.845L10.5292 0.33597ZM63.6435 30.5229V58.7225L62.482 57.5678L61.3205 56.4131V30.886V5.35882L60.964 5.00252L60.6077 4.64608H38.0697H15.5318L15.1956 4.96172L14.8597 5.27751V15.4154V25.5534H13.6982H12.5366V13.9382V2.32304H38.0901H63.6435V30.5229ZM28.6857 8.89608L26.7626 10.8232L27.6015 11.6534L28.4406 12.4836L31.195 9.72628L33.9493 6.96912H46.4733H58.9974V11.362V15.7549L54.4981 20.2524L49.999 24.7498L50.8293 25.589L51.6597 26.4281L55.3286 22.7613L58.9974 19.0947V36.5886V54.0826L55.2007 50.286L51.4041 46.4893L51.7162 46.0925C52.296 45.3555 52.1555 44.9585 50.8366 43.6072L49.6447 42.3863L52.2822 39.7411C55.2446 36.7701 55.5055 36.3743 55.5082 34.8456C55.5108 33.5022 55.0965 32.7125 53.6611 31.3247C52.2336 29.9446 51.9265 29.8859 50.9323 30.8024L50.2783 31.405L49.0659 30.2216C48.0347 29.2151 47.7802 29.038 47.365 29.038C46.9123 29.038 46.1732 29.7413 37.2564 38.658C28.3397 47.5748 27.6364 48.3139 27.6364 48.7666C27.6364 49.1818 27.8135 49.4363 28.82 50.4675L30.0034 51.68L29.4007 52.3339C28.4843 53.3281 28.543 53.6352 29.9231 55.0627C31.3109 56.4981 32.1005 56.9125 33.444 56.9098C34.9727 56.9071 35.3685 56.6462 38.3395 53.6839L40.9847 51.0463L42.2056 52.2382C43.5569 53.5571 43.9539 53.6977 44.6908 53.1178L45.0877 52.8058L48.8844 56.6023L52.6809 60.399H37.2631H21.8452L21.8006 56.2248L21.7562 52.0506L21.3256 51.2731C20.7059 50.1543 19.86 49.4784 18.3021 48.8573C15.8629 47.8847 15.8253 47.7756 16.6009 43.9251C16.9209 42.3364 17.1813 40.7381 17.1795 40.3731C17.1747 39.3639 16.6163 38.3278 15.7504 37.7214C15.5653 37.5917 15.4352 37.2746 15.3731 36.8016L15.2783 36.0797L15.6102 36.5153C17.8446 39.4481 21.3179 41.4412 24.7558 41.7633C25.662 41.8483 25.7466 41.8303 26.0988 41.478C26.7796 40.7972 26.6391 40.3781 25.2315 38.8928C23.9234 37.5126 23.2427 36.5565 22.7118 35.3538C22.4139 34.6789 21.9811 33.1199 21.9762 32.7041C21.9746 32.568 22.4477 32.5226 23.8644 32.5226H25.7547L27.0474 31.8733C27.7584 31.5163 28.4431 31.0771 28.5689 30.8973C28.744 30.6474 28.7979 30.1912 28.7979 28.9584C28.7979 27.0534 28.8161 27.081 26.9499 26.1496L25.7553 25.5534H21.469H17.1827V24.6451V23.7368L21.682 19.2393L26.1812 14.7419L25.3508 13.9027L24.5205 13.0636L20.8515 16.7304L17.1827 20.397V13.6831V6.96912H23.8957H30.6087L28.6857 8.89608ZM44.2418 9.61884C44.0838 9.79844 43.8079 10.4682 43.6286 11.107C43.0994 12.9938 42.1827 14.1161 40.555 14.8702C39.5084 15.3552 39.2516 15.6293 39.2516 16.2613C39.2516 16.9085 39.4912 17.1511 40.6907 17.7184C42.2448 18.4534 43.3083 19.8595 43.7552 21.7699C43.9733 22.7029 44.4362 23.2304 45.0365 23.2304C45.7448 23.2304 46.0803 22.8185 46.463 21.4788C47.0149 19.5477 47.943 18.4031 49.5673 17.6505C50.6098 17.1676 50.8668 16.8929 50.8668 16.2613C50.8668 15.6177 50.6261 15.371 49.46 14.8195C47.8926 14.0782 46.8079 12.6536 46.3631 10.7526C46.2615 10.3181 46.0276 9.8118 45.8432 9.6274C45.3959 9.18007 44.6312 9.17601 44.2418 9.61884ZM45.4749 14.5893C45.6636 14.8663 46.0988 15.3518 46.4418 15.6682L47.0657 16.2431L46.3056 17.0145C45.8875 17.4386 45.4361 17.9474 45.3024 18.1448L45.0592 18.5037L44.816 18.1448C44.6823 17.9474 44.2309 17.4386 43.8127 17.0145L43.0527 16.2431L43.6765 15.6682C44.0196 15.3518 44.4548 14.8663 44.6435 14.5893C44.8323 14.3121 45.0193 14.0855 45.0592 14.0855C45.0991 14.0855 45.2861 14.3121 45.4749 14.5893ZM36.1111 20.0725C35.9532 20.2523 35.6773 20.9219 35.498 21.5607C34.9688 23.4475 34.052 24.5698 32.4243 25.3239C31.3778 25.8088 31.121 26.083 31.121 26.715C31.121 27.3622 31.3605 27.6048 32.5601 28.1721C34.1142 28.907 35.1777 30.3132 35.6246 32.2236C35.8427 33.1566 36.3055 33.6841 36.9059 33.6841C37.6141 33.6841 37.9497 33.2722 38.3324 31.9325C38.8843 30.0013 39.8123 28.8568 41.4367 28.1041C42.4792 27.6212 42.7362 27.3465 42.7362 26.715C42.7362 26.0713 42.4954 25.8247 41.3294 25.2732C39.7619 24.5319 38.6772 23.1073 38.2325 21.2063C38.1309 20.7718 37.897 20.2655 37.7126 20.0811C37.2652 19.6338 36.5005 19.6297 36.1111 20.0725ZM37.3442 25.043C37.533 25.32 37.9681 25.8055 38.3112 26.1219L38.9351 26.6968L38.175 27.4682C37.7569 27.8923 37.3055 28.4011 37.1717 28.5985L36.9286 28.9574L36.6854 28.5985C36.5516 28.4011 36.1002 27.8923 35.6821 27.4682L34.922 26.6968L35.5459 26.1219C35.889 25.8055 36.3241 25.32 36.5129 25.043C36.7016 24.7658 36.8886 24.5391 36.9286 24.5391C36.9685 24.5391 37.1555 24.7658 37.3442 25.043ZM21.8288 29.038V30.1995H19.867H17.9052L15.5856 31.361L13.2661 32.5226H11.4036H9.54107L8.22725 31.1796C7.50464 30.4408 6.86595 29.6847 6.80801 29.4991C6.74878 29.3095 6.78086 28.9731 6.88105 28.7311C7.23299 27.8814 7.16547 27.8887 14.8234 27.8823L21.8288 27.8765V29.038ZM25.6731 28.2697C26.3369 28.5953 26.4749 28.7274 26.4749 29.038C26.4749 29.3486 26.3369 29.4807 25.6731 29.8063C25.2322 30.0225 24.7095 30.1995 24.5116 30.1995C24.1587 30.1995 24.1518 30.1775 24.1518 29.038C24.1518 27.8986 24.1587 27.8765 24.5116 27.8765C24.7095 27.8765 25.2322 28.0535 25.6731 28.2697ZM48.0389 32.5259L48.6092 33.1101L40.1564 41.5628L31.7037 50.0156L31.087 49.3989L30.4702 48.7822L38.8895 40.3619C43.52 35.7308 47.3446 31.9418 47.3886 31.9418C47.4325 31.9418 47.7252 32.2046 48.0389 32.5259ZM19.5058 32.5824C19.5058 32.6153 19.5978 33.1216 19.7103 33.7076C19.9663 35.0406 20.5305 36.5552 21.1757 37.6412L21.6721 38.4768L21.2059 38.2401C19.672 37.4609 18.188 36.0931 17.1733 34.523L16.5903 33.6211L17.6488 33.0789C18.542 32.6216 19.5058 32.3639 19.5058 32.5824ZM52.5057 33.5067C53.0581 34.0835 53.253 34.7225 53.0571 35.316C52.9449 35.6561 50.1927 38.4992 43.5659 45.1206L34.2328 54.4463H33.4996C32.8712 54.4463 32.6851 54.3748 32.1978 53.9471L31.6291 53.4481L41.792 43.2756C47.3817 37.6809 51.9919 33.1033 52.037 33.1033C52.0822 33.1033 52.2931 33.2848 52.5057 33.5067ZM12.7453 35.5353C12.7983 35.9146 12.8783 36.4372 12.9231 36.6968L13.0046 37.1686H11.3751H9.74564L9.8271 36.6968C9.87196 36.4372 9.95196 35.9146 10.005 35.5353L10.1014 34.8456H11.3751H12.6489L12.7453 35.5353ZM14.2852 39.6402C14.8813 39.9593 14.8807 40.2062 14.2764 43.2061C13.5528 46.7987 13.5403 47.4391 14.17 48.6482C14.7592 49.7794 15.3427 50.254 16.9803 50.9338C18.7801 51.681 19.1866 52.0304 19.4186 53.0307L19.5113 53.4299H11.5957C4.38697 53.4299 3.68004 53.4089 3.68004 53.1941C3.68004 52.5547 4.46145 49.2267 4.98878 47.62C5.67147 45.5404 7.95923 40.7454 8.50921 40.2416C9.15225 39.6526 9.84568 39.5049 12.0018 39.4981C13.1049 39.4946 14.1326 39.5585 14.2852 39.6402ZM48.6195 44.7217L49.1897 45.3057L46.5445 47.9509L43.8993 50.5961L43.2832 49.9801L42.6672 49.364L45.2773 46.7509C46.7129 45.3137 47.9238 44.1378 47.9684 44.1378C48.0128 44.1378 48.3058 44.4006 48.6195 44.7217ZM58.8791 57.3138C66.7876 65.2331 67.9975 66.5014 68.1315 67.0132C68.4245 68.1329 67.7671 69.2567 66.6414 69.5598C65.4758 69.8737 65.6023 69.9832 55.8048 60.1837L46.7321 51.1092L48.1796 49.6561C48.9758 48.857 49.6619 48.2031 49.7041 48.2031C49.7464 48.2031 53.8751 52.303 58.8791 57.3138ZM19.5058 59.2375V62.7221H11.4689H3.4322L3.32955 60.1225C3.27307 58.6928 3.27191 57.1247 3.32708 56.6379L3.42712 55.753H11.4664H19.5058V59.2375ZM56.1662 63.8836L57.3209 65.0451H39.5749H21.8288V63.8836V62.7221H38.4201H55.0115L56.1662 63.8836ZM19.4818 66.5333C19.4169 68.2278 19.1929 68.7732 18.3442 69.302C17.8435 69.614 17.7485 69.6186 11.8833 69.6186C6.19154 69.6186 5.90885 69.6058 5.43771 69.3282C4.35547 68.6906 4.06741 68.0754 3.75438 65.7348L3.66218 65.0451H11.6004H19.5387L19.4818 66.5333Z" fill="#00C2FF"/>
</svg>
