<svg width="72" height="72" viewBox="0 0 72 72" fill="none" xmlns="http://www.w3.org/2000/svg">
<path fill-rule="evenodd" clip-rule="evenodd" d="M27.0662 2.30303C26.7524 2.48083 26.3672 2.86598 26.1894 3.17981C25.8903 3.70802 25.8722 3.89693 25.87 6.51786L25.8677 9.29605H23.0543H20.241V6.91496V4.53374L19.8703 4.24227C19.3787 3.85544 18.8982 3.874 18.4763 4.29601C18.1376 4.6346 18.131 4.68552 18.131 6.96181V9.28226L14.6494 9.32432C10.631 9.37285 10.3751 9.43559 9.6719 10.5443C9.27677 11.1675 9.26889 11.219 9.26889 13.192V15.2041H7.2247C5.82604 15.2041 5.0369 15.2642 4.7256 15.3941C4.12438 15.6454 3.41218 16.4732 3.22861 17.1345C3.1286 17.4946 3.08077 24.657 3.08035 39.3638L3.0795 61.0618L2.552 61.0649C1.79816 61.0693 0.931505 61.5089 0.46083 62.1253L0.055144 62.6566L0.0106929 65.199C-0.0137833 66.5974 0.00520686 67.9489 0.0528933 68.2027C0.160645 68.777 0.887617 69.6227 1.49024 69.8745C1.86807 70.0324 7.82325 70.0646 36.6702 70.0646H71.395L71.701 69.7391C72.1072 69.3065 72.0985 68.6524 71.6813 68.2604C71.387 67.984 71.2041 67.9546 69.7822 67.9546H68.2087L68.2085 45.3422C68.2083 19.9862 68.305 22.2357 67.1759 21.3331L66.6356 20.9011L61.4423 20.8611L56.2492 20.821L55.8989 21.1711C55.4722 21.5977 55.4521 22.0769 55.8402 22.5702L56.1317 22.9408H60.8431C63.8219 22.9408 65.6546 22.9944 65.8267 23.0864C66.0939 23.2295 66.0987 23.6294 66.0987 45.5933V67.9546H59.4873H52.8759V65.3522V62.7498H57.0313C60.9484 62.7498 61.2191 62.7332 61.7542 62.4602C62.6159 62.0206 62.8565 61.3647 62.86 59.4441C62.8634 57.6695 62.6774 57.1224 61.893 56.5984C61.4224 56.284 61.3502 56.2791 57.1455 56.2791H52.8759V54.7318V53.1844H57.1455C61.3502 53.1844 61.4224 53.1795 61.893 52.8651C62.6774 52.3411 62.8634 51.7941 62.86 50.0194C62.8565 48.0509 62.6096 47.4027 61.7076 46.9934C61.1554 46.7427 60.7614 46.7196 56.9905 46.7168L52.8759 46.7137V45.2367V43.7597H57.0631C61.7985 43.7597 61.948 43.7306 62.5446 42.69C62.8192 42.2109 62.859 41.9387 62.8608 40.5243C62.8632 38.6735 62.6853 38.1376 61.893 37.6083C61.4224 37.2939 61.3502 37.289 57.1455 37.289H52.8759V35.7472V34.2057L57.2959 34.1647L61.7158 34.1239L62.0967 33.7723C62.7137 33.2026 62.8634 32.6631 62.8634 31.0079C62.8634 29.1185 62.6034 28.4578 61.6851 28.0133C61.1226 27.741 60.839 27.7235 56.9812 27.7235H52.8759V20.5067V13.29L52.5143 12.5643C52.3027 12.1397 51.9672 11.7262 51.7054 11.5673C51.4595 11.418 46.2209 9.20011 40.0643 6.63855C27.9015 1.57816 28.1813 1.67143 27.0662 2.30303ZM34.3078 6.62251C37.1317 7.79794 39.7428 8.88811 40.1103 9.0451L40.7785 9.33065V33.2377V57.1448L41.1897 57.556C41.4159 57.7822 41.6978 57.9671 41.8161 57.9671C42.2154 57.9671 42.7158 57.657 42.873 57.312C42.9854 57.0652 43.0292 50.4299 43.0292 33.6099C43.0292 14.9776 43.0648 10.2653 43.205 10.3232C47.0914 11.927 50.3137 13.2995 50.4494 13.4089C50.589 13.5213 50.6253 19.1602 50.6253 40.7525V67.9546H46.8272H43.0292V64.7084V61.4622L42.618 61.051C42.098 60.5309 41.7097 60.5309 41.1897 61.051L40.7785 61.4622V64.7084V67.9546H38.248H35.7177L35.6808 50.3128L35.6441 32.6711L35.2159 32.0612C34.9803 31.7257 34.5056 31.293 34.1609 31.0996C33.5608 30.763 33.4155 30.7459 30.7559 30.7022L27.9777 30.6565V17.4559C27.9777 7.02103 28.0146 4.24298 28.1536 4.19613C28.2503 4.16336 28.5193 4.21512 28.7514 4.31106C28.9835 4.407 31.4839 5.44723 34.3078 6.62251ZM25.8677 13.3754V15.2041H18.6233H11.3789V13.598C11.3789 12.7146 11.4173 11.8917 11.4643 11.7693C11.5405 11.5704 12.3104 11.5467 18.7087 11.5467H25.8677V13.3754ZM25.8368 19.178L25.8761 20.9715H19.1794H12.4826L12.0714 21.3827C11.5514 21.9027 11.5514 22.2909 12.0714 22.811L12.4826 23.2222H19.1751H25.8677V26.9499V30.6776H15.5989H5.33019V26.9499V23.2222H6.67582C8.01498 23.2222 8.47595 23.1032 8.80722 22.6717C9.15776 22.2151 8.90329 21.3879 8.33246 21.1276C8.14383 21.0418 7.39126 20.9715 6.65992 20.9715H5.33019V19.2905C5.33019 17.8381 5.36367 17.5898 5.57636 17.4655C5.73925 17.3702 9.1994 17.3323 15.8099 17.3531L25.7974 17.3845L25.8368 19.178ZM60.6127 31.0292V32.0842H56.7443H52.8759V31.0292V29.9742H56.7443H60.6127V31.0292ZM18.131 37.0076V41.087H11.7306H5.33019V37.0076V32.9283H11.7306H18.131V37.0076ZM33.295 33.0971C33.4244 33.2265 33.4638 37.3077 33.4638 50.6102V67.9546H26.8524H20.241V50.7541C20.241 35.4139 20.2646 33.5198 20.46 33.241L20.6789 32.9283H26.9026C31.5556 32.9283 33.1688 32.9709 33.295 33.0971ZM23.7381 35.729C23.4316 35.9768 23.4024 36.1172 23.3586 37.5517C23.3126 39.0584 23.322 39.1168 23.6686 39.4634C24.1651 39.9598 24.8986 39.9539 25.2948 39.4503C25.5474 39.1293 25.5864 38.8839 25.5864 37.6153C25.5864 36.248 25.5634 36.1279 25.241 35.8056C24.822 35.3866 24.2005 35.3548 23.7381 35.729ZM28.5649 35.7858C28.2892 36.0794 28.2591 36.2636 28.2591 37.6603C28.2591 39.0975 28.2825 39.2313 28.5846 39.5152C29.0129 39.9175 29.7065 39.9165 30.0823 39.5131C30.3353 39.2416 30.3691 39.0209 30.3691 37.6387C30.3691 36.1829 30.346 36.0504 30.0436 35.7661C29.611 35.3598 28.9569 35.3686 28.5649 35.7858ZM60.6127 40.454V41.509H56.7443H52.8759V40.454V39.399H56.7443H60.6127V40.454ZM18.131 47.2764V51.3557H11.7306H5.33019V47.2764V43.197H11.7306H18.131V47.2764ZM23.7381 43.6064C23.4323 43.8536 23.4024 43.9956 23.3593 45.4013C23.3168 46.7908 23.3398 46.9623 23.6156 47.3131C24.0392 47.8514 24.8771 47.8587 25.2948 47.3277C25.5474 47.0067 25.5864 46.7613 25.5864 45.4927C25.5864 44.1254 25.5634 44.0053 25.241 43.683C24.822 43.264 24.2005 43.2322 23.7381 43.6064ZM28.5649 43.6632C28.2885 43.9575 28.2591 44.1403 28.2591 45.5622C28.2591 47.3744 28.419 47.6984 29.3141 47.6984C30.2115 47.6984 30.3691 47.3764 30.3691 45.5425C30.3691 44.0592 30.3467 43.9283 30.0436 43.6435C29.611 43.2372 28.9569 43.246 28.5649 43.6632ZM60.6127 50.0194V51.0744H56.7443H52.8759V50.0194V48.9644H56.7443H60.6127V50.0194ZM23.7381 51.4838C23.4323 51.731 23.4024 51.873 23.3593 53.2787C23.3168 54.6682 23.3398 54.8397 23.6156 55.1905C24.0392 55.7288 24.8771 55.7361 25.2948 55.2051C25.5474 54.8841 25.5864 54.6387 25.5864 53.3701C25.5864 52.0028 25.5634 51.8827 25.241 51.5604C24.822 51.1414 24.2005 51.1096 23.7381 51.4838ZM28.5649 51.5406C28.2885 51.8349 28.2591 52.0177 28.2591 53.4396C28.2591 55.2518 28.419 55.5758 29.3141 55.5758C30.2115 55.5758 30.3691 55.2538 30.3691 53.4199C30.3691 51.9366 30.3467 51.8057 30.0436 51.5209C29.611 51.1146 28.9569 51.1234 28.5649 51.5406ZM18.131 57.2638V61.0618H11.7306H5.33019V57.2638V53.4658H11.7306H18.131V57.2638ZM60.6127 59.4441V60.4992H56.7443H52.8759V59.4441V58.3891H56.7443H60.6127V59.4441ZM23.7381 59.3612C23.4323 59.6084 23.4024 59.7504 23.3593 61.1561C23.3168 62.5456 23.3398 62.7171 23.6156 63.0679C24.0392 63.6062 24.8771 63.6135 25.2948 63.0825C25.5474 62.7615 25.5864 62.5161 25.5864 61.2475C25.5864 59.8802 25.5634 59.7601 25.241 59.4378C24.822 59.0188 24.2005 58.987 23.7381 59.3612ZM28.5649 59.418C28.2885 59.7123 28.2591 59.8951 28.2591 61.317C28.2591 63.1292 28.419 63.4532 29.3141 63.4532C30.2115 63.4532 30.3691 63.1312 30.3691 61.2973C30.3691 59.814 30.3467 59.6831 30.0436 59.3983C29.611 58.992 28.9569 59.0008 28.5649 59.418ZM18.131 65.6335V67.9546H10.2817C4.36422 67.9546 2.39093 67.9131 2.26363 67.7858C2.08583 67.6079 2.01437 63.967 2.18021 63.5351C2.25674 63.3357 3.09441 63.3125 10.1983 63.3125H18.131V65.6335Z" fill="#00C2FF"/>
</svg>
