<svg width="72" height="72" viewBox="0 0 72 72" fill="none" xmlns="http://www.w3.org/2000/svg">
<g clip-path="url(#clip0_2014_199)">
<path fill-rule="evenodd" clip-rule="evenodd" d="M11.5329 1.19531V2.39062H12.7282H13.9235V1.19531V0H12.7282H11.5329V1.19531ZM20.8142 1.125V2.25H19.6892H18.5642V3.44531V4.64062H19.6892H20.8142V5.83594V7.03125H22.0095H23.2048V5.83594V4.64062H24.4001H25.5954V3.44531V2.25H24.4001H23.2048V1.125V0H22.0095H20.8142V1.125ZM41.6267 0.157219C40.3284 0.378422 38.1698 1.19194 36.961 1.91531C36.3305 2.29275 35.264 3.12272 34.5912 3.75961C32.0123 6.20086 30.6294 8.9775 30.2352 12.5052C30.0632 14.0442 30.1227 14.8285 30.6111 17.4644L30.9677 19.3898L30.4641 19.8319C30.1873 20.0751 29.7536 20.6947 29.5007 21.2088C29.0915 22.0402 29.0421 22.2678 29.0533 23.2709C29.0682 24.6248 29.3761 25.418 30.2587 26.3755C31.0117 27.1924 31.9068 27.6501 33.1353 27.8464C33.6632 27.9307 34.1003 28.0121 34.1065 28.0273C34.1127 28.0423 34.2322 28.4344 34.3718 28.8984C35.2531 31.8244 37.2063 34.5838 39.7282 36.4656C40.8366 37.2926 42.8978 38.3953 43.8926 38.6933L44.4015 38.8457L43.1792 39.4575C41.1471 40.4748 39.7562 42.3037 39.5586 44.2181C39.5142 44.6482 39.4249 45 39.3601 45C39.2952 45 38.9087 44.8459 38.5009 44.6574C38.093 44.4691 37.6571 44.2844 37.532 44.2471C37.3455 44.1915 37.2929 43.8997 37.2406 42.6305C37.184 41.2594 37.135 41.0186 36.8127 40.5316C36.1814 39.5775 35.7366 39.4519 32.8025 39.399L30.236 39.3526V36.8769C30.236 33.9533 30.0853 33.4406 29.0465 32.8319L28.4465 32.4802L14.9514 32.5174L1.4563 32.5547L0.925016 32.96C-0.0398118 33.6959 -0.00873361 33.3391 0.0337351 43.1644C0.071282 51.8496 0.0773289 52.0179 0.361954 52.399C0.521423 52.6126 0.826438 52.9177 1.03991 53.0772C1.41074 53.3542 1.63475 53.369 6.05867 53.4078L10.6892 53.4485L10.6879 53.8297C10.6873 54.0394 10.6468 54.5432 10.598 54.9492L10.5093 55.6875L6.20478 55.6906C1.38261 55.6941 1.08364 55.7456 0.409626 56.6906C0.0984226 57.1271 0.0684695 57.318 0.0271258 59.1328C-0.0154836 60.9988 -0.000858609 61.1266 0.308376 61.5808C0.945688 62.5174 1.25366 62.6434 3.03495 62.6957L4.6423 62.7429V66.5772C4.6423 70.3326 4.64891 70.4213 4.96208 70.886C5.13786 71.147 5.49533 71.5044 5.75633 71.6802L6.2308 72H36.0017H65.7726L66.2375 71.6836C66.4931 71.5096 66.8347 71.1886 66.9965 70.9705C67.276 70.5938 67.2928 70.3763 67.3321 66.6582L67.3734 62.7427L68.9747 62.6955C70.7491 62.6434 71.0581 62.5167 71.695 61.5808C72.0042 61.1266 72.0188 60.9988 71.9762 59.1328C71.9349 57.318 71.9049 57.1271 71.5937 56.6906C71.408 56.4303 70.9966 56.0994 70.6797 55.9554C70.1385 55.7097 69.5922 55.6935 61.755 55.6906L53.407 55.6875L54.2569 54.7789C55.2622 53.7043 56.0144 52.4152 56.503 50.9297C56.822 49.9594 56.8641 49.5667 56.9223 47.0039L56.9871 44.1562L57.8499 44.1546C59.8989 44.1506 61.9627 43.0758 63.041 41.4513C63.5043 40.7535 63.6152 40.6726 64.4113 40.4512C66.7739 39.7943 68.5672 38.1462 69.3292 35.9315C69.4842 35.481 69.611 34.9775 69.611 34.813C69.611 34.6372 69.9258 34.203 70.3745 33.7598C71.405 32.7421 71.9041 31.6357 71.9761 30.2088C72.0512 28.722 71.6782 27.606 70.7335 26.49C70.4759 26.1856 68.5947 24.6217 68.3958 24.5467C68.3848 24.5424 68.4225 24.2366 68.4796 23.8669C68.6984 22.4494 68.1964 20.9561 67.1628 19.9502L66.5693 19.3728L66.9707 17.3856C67.3277 15.6168 67.3653 15.182 67.312 13.4297C67.2394 11.0409 66.9435 9.80494 65.9652 7.80469C64.4992 4.80684 62.3918 2.73375 59.3159 1.26323C58.6748 0.956813 57.6439 0.565313 57.0251 0.393469C55.9422 0.0928125 55.648 0.0800156 49.1501 0.0532969C45.4376 0.0379688 42.0521 0.0847969 41.6267 0.157219ZM4.6423 4.57031V6.89062H2.32199H0.00167264V8.08594V9.28125H2.32199H4.6423V11.6016V13.9219H5.83761H7.03292V11.6016V9.28125H9.35324H11.6735V8.08594V6.89062H9.35324H7.03292V4.57031V2.25H5.83761H4.6423V4.57031ZM23.2048 3.51562V4.64062H22.0798H20.9548V3.51562V2.39062H22.0798H23.2048V3.51562ZM56.4626 2.72503C58.7213 3.38245 60.9907 4.869 62.4362 6.63806C63.2675 7.65534 64.277 9.63816 64.6414 10.9688C64.9872 12.2321 64.9874 15.2397 64.6419 16.875C64.1634 19.1398 64.0588 19.1346 63.9412 16.8398C63.8443 14.9452 63.6038 13.9335 62.9973 12.8672C62.3171 11.6713 60.9412 10.4442 59.6937 9.92081C59.0628 9.65602 57.2286 9.24173 57.1289 9.34144C57.0493 9.42103 56.6854 11.0905 56.6785 11.4075C56.6748 11.5757 56.9022 11.6803 57.5478 11.8073C58.0286 11.9019 58.7157 12.1281 59.0746 12.31C59.816 12.6856 60.9329 13.8544 61.1525 14.4842L61.2995 14.9062H60.5781C58.8556 14.9062 46.4061 14.1843 45.7048 14.0437C43.2554 13.5527 40.9307 11.8112 39.8486 9.65658C39.6478 9.25678 39.463 8.90691 39.438 8.87906C39.3719 8.80538 37.4065 9.59175 37.3244 9.72464C37.2193 9.89452 37.9275 11.2596 38.5416 12.0708L39.0867 12.7911L37.2697 13.715C35.0606 14.8383 34.3378 15.5361 33.8937 16.9737C33.7383 17.4772 33.611 18.0458 33.611 18.2375C33.611 18.4493 33.5437 18.5635 33.4393 18.5287C33.3448 18.4972 33.1263 17.7801 32.9538 16.9349C32.3788 14.1209 32.5811 11.3671 33.5187 9.24736C34.5643 6.88289 36.5268 4.81092 38.8143 3.65625C41.2222 2.44069 41.542 2.40314 49.1501 2.44434C54.8215 2.47514 55.7229 2.50973 56.4626 2.72503ZM6.8923 8.15625V9.28125H5.7673H4.6423V8.15625V7.03125H5.7673H6.8923V8.15625ZM22.4314 11.6561C21.4438 11.9121 20.5411 12.6565 20.025 13.6406C19.6471 14.3612 19.6712 15.9183 20.0718 16.6774C20.7093 17.8851 21.859 18.5645 23.2571 18.5594C24.3616 18.5555 25.0937 18.2233 25.8223 17.3957C26.9811 16.0791 27.0357 14.282 25.9595 12.8711C25.2762 11.9752 23.5257 11.3723 22.4314 11.6561ZM23.6327 14.0625C23.8875 14.0625 24.3298 14.6918 24.3298 15.0545C24.3298 15.634 23.8323 16.1719 23.2962 16.1719C22.3665 16.1719 21.8085 15.2709 22.2865 14.5415C22.5384 14.1571 23.0245 13.9033 23.3218 14.001C23.4247 14.0348 23.5647 14.0625 23.6327 14.0625ZM41.7546 15.0524C42.6939 15.6305 44.029 16.1594 45.1386 16.3931C45.6495 16.5007 49.1427 16.7451 53.0173 16.9442C56.8458 17.1409 60.315 17.3375 60.7265 17.3811L61.4749 17.4603L61.4175 22.1247C61.3526 27.4264 61.337 27.5245 60.1852 29.9046C58.5095 33.3672 55.6681 35.7024 51.8829 36.7279C50.2395 37.1731 47.2946 37.171 45.6345 36.7237C41.0593 35.4904 37.5698 31.9631 36.4074 27.3963C36.1513 26.3902 36.1 25.6856 36.0405 22.3594C35.9675 18.2787 36.0297 17.6569 36.5802 16.9568C36.854 16.6088 40.4837 14.6495 40.8863 14.6323C40.9818 14.6284 41.3726 14.8174 41.7546 15.0524ZM11.6267 16.2657C11.5751 16.3171 11.5329 16.855 11.5329 17.461V18.5625H12.7282H13.9235V17.3672V16.1719H12.822C12.2161 16.1719 11.6782 16.2141 11.6267 16.2657ZM40.6069 18.7632C39.2327 19.2535 38.3888 20.491 38.2808 22.1742L38.2147 23.2031H39.4284H40.6423V22.6498C40.6423 21.176 41.685 20.4362 42.5471 21.2984C42.8306 21.5817 42.8923 21.7828 42.8923 22.4234V23.2031H44.0876H45.2829V22.2143C45.2829 21.0753 45.0873 20.5176 44.4226 19.7605C43.5029 18.713 41.9124 18.2973 40.6069 18.7632ZM54.5515 18.7553C53.1751 19.2473 52.3405 20.4595 52.2124 22.1528L52.1329 23.2031H53.3312H54.5293L54.5954 22.4059C54.6491 21.7593 54.7336 21.5466 55.0426 21.2809C55.5135 20.8758 55.9602 20.8643 56.4436 21.2446C56.7695 21.5009 56.8142 21.6366 56.8142 22.3696V23.2031H58.0095H59.2048L59.2017 22.1836C59.1979 20.9093 58.905 20.2238 58.038 19.4607C57.0584 18.5985 55.7377 18.3313 54.5515 18.7553ZM2.79491 20.9116C2.08334 21.0212 0.945688 21.835 0.504688 22.5501C-0.0279993 23.4135 -0.155546 24.7196 0.20136 25.6544C1.12555 28.074 4.43769 28.6447 6.12364 26.675C6.73297 25.9633 7.09803 24.8054 6.98145 23.9548C6.79695 22.6084 5.77799 21.4155 4.48452 21.0313C3.75791 20.8156 3.52616 20.7991 2.79491 20.9116ZM17.4392 22.0022V23.2031H16.2439H15.0485V24.3984V25.5938H16.2439H17.4392V26.7947V27.9958L18.5993 27.9548L19.7595 27.9141L19.8003 26.7539L19.8412 25.5938H20.9604H22.0798V24.3984V23.2031H20.9604H19.8412L19.8003 22.043L19.7595 20.8828L18.5993 20.842L17.4392 20.8011V22.0022ZM33.611 23.2031V25.4531H33.2803C32.338 25.4531 31.2516 23.9857 31.4267 22.9492C31.5572 22.1766 31.9684 21.5727 32.5856 21.247C33.6244 20.6987 33.611 20.6731 33.611 23.2031ZM65.111 21.3591C66.7492 22.5364 66.2469 25.1003 64.3168 25.4135L63.801 25.4971L63.8923 24.7368C63.9426 24.3187 63.9842 23.2895 63.9848 22.4497L63.986 20.9226L64.3728 21.0146C64.5854 21.0651 64.9177 21.2202 65.111 21.3591ZM19.6892 24.3281V25.4531H18.5642H17.4392V24.3281V23.2031H18.5642H19.6892V24.3281ZM4.29706 23.632C4.67492 24.0495 4.64159 24.8591 4.23294 25.19C3.17839 26.0439 1.7592 24.6389 2.67903 23.6516C3.06238 23.2401 3.93284 23.2296 4.29706 23.632ZM68.6087 27.7599C70.1806 29.2033 69.8294 31.6422 67.9072 32.6312C67.4162 32.8838 67.3955 32.9261 67.3033 33.8615C67.0555 36.3766 65.3674 38.0513 62.8883 38.2414L61.8609 38.3203L61.5233 39.1525C60.8514 40.809 59.4156 41.7686 57.6174 41.7628L56.7439 41.76L56.2783 40.7692C56.0188 40.2168 55.521 39.4781 55.1533 39.0999L54.4939 38.4216L55.6189 37.8467C59.1937 36.0197 61.9416 32.7956 63.1516 29.0085L63.4759 27.9938L64.1177 27.9075C65.1153 27.7734 66.0088 27.4492 66.6049 27.0046L67.15 26.5982L67.6422 26.9613C67.913 27.1612 68.3478 27.5205 68.6087 27.7599ZM9.28292 29.0391V30.2344H10.4782H11.6735V29.0391V27.8438H10.4782H9.28292V29.0391ZM51.6448 28.9034C50.3356 29.8216 49.2958 30.0938 47.0963 30.0938H45.2829V31.381V32.6682L47.2165 32.5818C48.2801 32.5342 49.5298 32.3959 49.9939 32.2744C51.1726 31.9659 52.6709 31.2255 53.5552 30.5145L54.304 29.9123L53.4894 29.089C53.0412 28.6362 52.641 28.2703 52.5998 28.2759C52.5587 28.2814 52.129 28.5639 51.6448 28.9034ZM27.8138 37.1545L27.7751 39.4341L27.3503 39.5208C26.7388 39.6457 26.2098 40.0317 25.844 40.62C25.5306 41.124 25.5244 41.2182 25.4832 46.0925L25.4414 51.0522L22.3198 51.0144L19.1983 50.9766L18.9671 48.6408C18.8398 47.356 18.6919 46.1047 18.638 45.8601C18.5168 45.3078 17.9682 44.641 17.3873 44.3396C16.8175 44.044 14.5149 43.9258 13.5126 44.1408C11.9248 44.4812 11.5942 45.0395 11.3126 47.8555C11.2027 48.9534 11.077 50.1206 11.033 50.4492L10.9531 51.0469H6.67278H2.3923V42.9609V34.875H15.1224H27.8525L27.8138 37.1545ZM52.5075 40.0537C54.0941 40.9448 54.5642 42.0986 54.5642 45.1022V47.1222L54.1071 47.0388C53.8557 46.9929 51.9892 46.6528 49.9593 46.2829C47.9293 45.9132 46.231 45.573 46.185 45.5272C46.0544 45.3964 46.8074 42.2203 47.1095 41.6281C47.4805 40.9008 48.5685 39.9762 49.3483 39.7253C50.3108 39.4156 51.6123 39.5509 52.5075 40.0537ZM43.9196 44.1824C43.5836 45.6663 43.2845 46.9046 43.2548 46.9344C43.1468 47.0423 42.0809 46.412 41.9955 46.1898C41.8351 45.7716 41.9051 44.4808 42.1217 43.8671C42.4137 43.0394 42.9474 42.3761 43.7117 41.8915C44.0647 41.6676 44.3933 41.4844 44.442 41.4844C44.4905 41.4844 44.2554 42.6985 43.9196 44.1824ZM34.736 43.2184C34.736 44.4902 34.7247 44.5366 34.3675 44.7279C33.7659 45.0498 32.94 46.0966 32.6873 46.8575C32.3373 47.9111 32.462 49.3703 32.9841 50.3297C33.3695 51.0377 33.6998 51.3931 34.4606 51.9185C34.7902 52.146 34.647 52.1575 31.3962 52.1646L27.986 52.1719V47.0391V41.9062H31.361H34.736V43.2184ZM16.319 46.582C16.3216 46.6013 16.5303 48.6579 16.783 51.1523L17.2423 55.6875H15.0784H12.9144L12.9946 55.1602C13.0386 54.8702 13.2395 52.8926 13.4409 50.7656C13.6424 48.6387 13.8314 46.8194 13.861 46.7227C13.8985 46.6 14.2771 46.5469 15.1145 46.5469C15.7743 46.5469 16.3163 46.5628 16.319 46.582ZM40.6665 48.3871C43.739 49.9243 44.4763 50.3527 45.1436 50.9892C45.5829 51.4083 46.0616 51.9723 46.2071 52.2427C46.3528 52.5132 46.5387 52.7344 46.6203 52.7344C46.8063 52.7344 48.6579 51.7572 48.6579 51.659C48.6579 51.2686 46.8884 49.215 45.8454 48.3944C45.6521 48.2424 45.5315 48.0801 45.5775 48.0338C45.6235 47.9877 47.5639 48.2986 49.8894 48.7249C52.2149 49.1513 54.1814 49.5 54.2593 49.5C54.458 49.5 54.2113 50.353 53.7003 51.433C53.2121 52.4651 52.0346 53.7892 51.0346 54.4307C48.898 55.8018 46.045 56.0506 43.8073 55.061C43.4061 54.8837 41.3294 53.58 39.1922 52.164C35.1007 49.4532 34.8767 49.2495 34.8767 48.2413C34.8767 47.6956 35.1938 47.058 35.6103 46.7664C36.2902 46.2901 36.8042 46.4549 40.6665 48.3871ZM26.0444 53.6996C26.1455 53.8438 26.4497 54.0966 26.7204 54.2616C27.1935 54.5497 27.3742 54.5615 31.361 54.5615C35.3374 54.5615 35.5299 54.5491 36.0017 54.2637C36.2724 54.1 36.5445 53.8786 36.6064 53.772C36.6682 53.6655 36.7802 53.5781 36.8551 53.5781C36.9302 53.5781 37.7018 54.0527 38.5699 54.6328L40.1483 55.6875H29.9274H19.7065L19.6232 55.0195C19.5774 54.6521 19.5142 54.146 19.4827 53.8945L19.4256 53.4375H22.6431C25.6227 53.4375 25.8743 53.4569 26.0444 53.6996ZM69.611 59.2031V60.3281H36.0017H2.3923V59.2031V58.0781H36.0017H69.611V59.2031ZM64.9704 66.1641V69.6094H36.0017H7.03292V66.1641V62.7188H36.0017H64.9704V66.1641Z" fill="#00C2FF"/>
</g>
<defs>
<clipPath id="clip0_2014_199">
<rect width="72" height="72" fill="white"/>
</clipPath>
</defs>
</svg>
