<svg width="72" height="72" viewBox="0 0 72 72" fill="none" xmlns="http://www.w3.org/2000/svg">
<g clip-path="url(#clip0_2014_181)">
<path fill-rule="evenodd" clip-rule="evenodd" d="M7.8693 0.296593C5.82128 0.83285 4.26299 1.76617 2.79032 3.33796C1.68223 4.52085 0.940974 5.75379 0.438461 7.25008C0.099047 8.26059 0.0601001 8.58215 0.0554602 10.4136C0.0508203 12.1796 0.0935635 12.5823 0.37519 13.4228C1.36475 16.3763 3.21381 18.5632 5.76392 19.7963L6.85977 20.3261L6.86455 22.515C6.87003 25.0508 7.03721 25.8138 7.77622 26.6772C9.37191 28.5414 12.4465 28.178 13.5335 25.9969C13.8853 25.2906 13.8995 25.1683 13.8995 22.8312V20.4002L14.8699 19.9206C16.1651 19.2806 16.7624 18.8616 17.7517 17.899C21.2546 14.4914 21.9024 9.28839 19.3626 4.96234C19.1031 4.52043 18.3733 3.64124 17.7407 3.00839C16.7774 2.0447 16.3549 1.74128 15.1396 1.14077C14.3229 0.737241 13.2582 0.334134 12.7043 0.21884C11.308 -0.0719259 9.14329 -0.0370565 7.8693 0.296593ZM25.4481 0.201546C24.7045 0.470659 23.8793 1.25325 23.5155 2.03458C23.1878 2.73815 23.182 2.82533 23.182 6.96888C23.182 11.092 23.1893 11.2028 23.5098 11.8909C23.8447 12.6101 24.6176 13.4089 25.1384 13.5742C25.4049 13.6589 25.4288 13.7759 25.4288 14.9971C25.4288 16.1402 25.3941 16.339 25.1828 16.4075C22.9365 17.1357 21.3318 18.9295 20.9165 21.1765C20.833 21.6277 20.786 22.9545 20.812 24.1249C20.8572 26.1548 20.8766 26.2788 21.2334 26.8177C21.9145 27.8461 22.2036 27.9124 26.2341 27.9645C30.378 28.0179 31.1126 27.9199 31.8122 27.2203C32.4216 26.611 32.6003 25.8512 32.5968 23.8843C32.5914 20.793 32.1984 19.4494 30.8974 18.0738C30.2497 17.3889 29.1684 16.7197 28.2057 16.4075C27.9944 16.339 27.9597 16.1402 27.9597 14.9971C27.9597 13.7759 27.9836 13.6589 28.2502 13.5742C28.7133 13.4273 29.4963 12.6692 29.831 12.0439C30.1296 11.4859 30.139 11.3301 30.139 6.96888C30.139 2.62694 30.1285 2.44992 29.8356 1.90719C28.9996 0.358036 27.079 -0.388562 25.4481 0.201546ZM36.9923 0.21181C36.1524 0.590311 35.5629 1.15441 35.1691 1.9564L34.7789 2.75081V7.03918C34.7789 11.1952 34.7885 11.3455 35.0898 11.9088C35.456 12.5935 36.1219 13.2901 36.6919 13.5849C37.0964 13.7941 37.0988 13.803 37.0988 15.1013V16.4075L36.623 16.6343C33.8879 17.9387 32.7923 22.0888 34.3641 25.1908C35.8687 28.16 39.2042 28.7883 41.3137 26.4998C42.4684 25.247 43.1114 23.2764 42.9485 21.4896C42.7534 19.352 41.5471 17.3889 39.9649 16.6343L39.4891 16.4075V15.1013C39.4891 13.803 39.4915 13.7941 39.896 13.5849C40.466 13.2901 41.1319 12.5935 41.4981 11.9088C41.7914 11.3605 41.8117 11.1244 41.856 7.74219C41.9145 3.27511 41.8543 2.64971 41.2719 1.67857C40.6239 0.598185 39.7541 0.0945473 38.4482 0.0440711C37.7968 0.0187626 37.2913 0.0771126 36.9923 0.21181ZM51.0185 4.57864V6.89858H48.6985H46.3786V8.0937V9.28882H48.6985H51.0185V11.6088V13.9287H52.2136H53.4087V11.6088V9.28882H55.7287H58.0486V8.0937V6.89858H55.7287H53.4087V4.57864V2.2587H52.2136H51.0185V4.57864ZM12.0999 2.55256C13.1174 2.76191 14.9565 3.67231 15.7444 4.35677C16.6366 5.13163 17.6322 6.63495 18.051 7.83921C19.6473 12.4295 16.763 17.3871 11.9258 18.3672C7.02751 19.3597 2.36106 15.4887 2.37217 10.4419C2.38018 6.7733 4.97176 3.47955 8.52844 2.61709C9.51673 2.37737 11.1086 2.34868 12.0999 2.55256ZM27.4739 2.74448L27.8191 3.08952V6.96888V10.8482L27.4739 11.1933C27.0174 11.65 26.3712 11.65 25.9146 11.1933L25.5694 10.8482V6.96888V3.08952L25.9146 2.74448C26.1321 2.52683 26.4204 2.3993 26.6943 2.3993C26.9682 2.3993 27.2564 2.52683 27.4739 2.74448ZM39.0231 2.70497C39.3483 3.01064 39.3485 3.01247 39.3485 6.98786C39.3485 10.8983 39.3433 10.9699 39.0407 11.2518C38.6379 11.627 37.9755 11.6186 37.5648 11.2328C37.2397 10.9273 37.2394 10.9236 37.2394 6.98856C37.2394 3.13845 37.2463 3.04284 37.5451 2.72465C37.937 2.30763 38.5908 2.29891 39.0231 2.70497ZM8.56514 4.93408C7.03707 5.48355 5.8546 6.55269 5.14808 8.0234C4.33652 9.71259 4.47206 11.9432 5.48243 13.5312C7.51048 16.7184 11.8897 17.2203 14.5403 14.5696C17.191 11.9189 16.6884 7.53551 13.502 5.51266C12.1232 4.63741 10.062 4.39585 8.56514 4.93408ZM63.9495 7.11454C61.8855 7.75077 60.8893 10.1912 61.9204 12.0854C62.5891 13.3141 63.6314 13.9287 65.0467 13.9287C67.0178 13.9287 68.4813 12.4198 68.4813 10.3876C68.4813 8.88065 67.4716 7.54085 66.0084 7.10625C65.1643 6.85569 64.7846 6.8571 63.9495 7.11454ZM11.8617 7.36974C12.788 7.8011 13.4145 8.53701 13.7057 9.53543C14.4551 12.1051 12.0758 14.4844 9.50619 13.7349C7.62535 13.1865 6.6088 11.293 7.17711 9.39624C7.40953 8.62025 8.42482 7.53129 9.15764 7.27173C10.0572 6.95313 11.044 6.98898 11.8617 7.36974ZM53.4087 8.164V9.28882H52.2839H51.1591V8.164V7.03918H52.2839H53.4087V8.164ZM65.4904 9.49452C65.9265 9.72004 66.0629 9.96469 66.0629 10.5215C66.0629 11.3905 64.8547 11.8769 64.2351 11.2572C63.7361 10.7583 63.9273 9.6856 64.5606 9.4304C64.9876 9.25845 65.0409 9.2621 65.4904 9.49452ZM28.1996 19.0151C28.8674 19.3263 29.5877 20.0799 29.8754 20.7683C30.0104 21.0913 30.0687 21.8694 30.0687 23.3446V25.4581H26.6048H23.141L23.2104 23.3842C23.2875 21.0825 23.4423 20.5125 24.2057 19.7166C25.2604 18.6169 26.7745 18.3511 28.1996 19.0151ZM39.6456 19.4043C40.9301 20.8281 40.7982 23.8063 39.3961 25.0373C38.3721 25.9364 37.0679 25.4331 36.3908 23.8773C35.947 22.8578 35.9438 21.3169 36.3833 20.3075C37.1534 18.5385 38.5223 18.1594 39.6456 19.4043ZM55.1644 18.8134C52.56 19.744 51.0252 21.8795 51.0202 24.5793L51.0185 25.4581H49.8937H48.7688V26.7259V27.9938L52.2487 27.9562L55.7287 27.9186V26.7235V25.5284L54.5687 25.4876L53.4087 25.4467V24.7749C53.4087 22.6716 54.689 21.1734 56.6375 20.9968C58.1043 20.8638 59.718 21.9373 60.1329 23.3219C60.251 23.7159 60.2982 26.0908 60.2982 31.6257V39.3777H58.0486H55.799V38.3232V37.2687H56.9238H58.0486V36.0009V34.7329L54.5687 34.7706L51.0888 34.8081V36.0033V37.1984L52.2487 37.2392L53.4087 37.2801V38.3283V39.3765L38.3291 39.4122L23.2495 39.448L23.2089 40.6783L23.1682 41.9086H46.3731H69.578V42.9627V44.0168L46.4137 44.0523L23.2495 44.0879L23.2069 46.5484C23.1826 47.9545 23.2262 49.2216 23.3087 49.505C23.4829 50.1039 24.1991 50.8109 24.8522 51.0289C25.1797 51.1381 27.2394 51.1873 31.3902 51.1852C36.9813 51.1824 37.4939 51.162 38.0128 50.9226C39.1834 50.3822 39.4891 49.7514 39.4891 47.875V46.5484H40.6139H41.7387V51.118V55.6876H31.2869H20.8352L18.5624 49.2422L16.2897 42.797V41.1576V39.5183H17.3945H18.4995L18.5797 41.0298C18.6601 42.5441 18.9682 43.9169 19.5123 45.1866L19.7977 45.8525L20.8206 45.3404C21.3832 45.0588 21.8601 44.8137 21.8805 44.796C21.9009 44.7783 21.766 44.3587 21.581 43.8635C21.1223 42.636 20.8978 41.2126 20.9535 39.8836L20.9999 38.7724L21.5561 38.5804C21.8619 38.4746 22.2633 38.247 22.4482 38.0745C23.1051 37.461 23.1792 37.1367 23.1792 34.8716C23.1792 31.8064 23.0525 31.6107 20.4733 30.6899L19.0314 30.1752L11.8277 30.1306C4.31824 30.084 3.87169 30.1126 3.14407 30.685C2.36331 31.2991 2.23592 31.8662 2.23339 34.7378C2.23213 36.1685 2.29329 37.5632 2.36949 37.8373C2.52655 38.4026 3.23167 39.1471 3.82037 39.3691C4.03802 39.4511 4.81316 39.5183 5.54275 39.5183H6.86933V41.1911V42.864L3.4721 52.4744C0.17455 61.8027 0.0730355 62.1221 0.0129983 63.3504C-0.0660202 64.9672 0.189876 65.7626 1.48623 67.9289C2.65956 69.8897 3.43962 70.691 4.85647 71.3913L5.94079 71.9272L35.8386 71.9636L65.7363 72L66.2031 71.6824C66.4597 71.5078 66.8021 71.1862 66.9639 70.9678C67.2562 70.5733 67.2583 70.4975 67.2954 58.5597L67.333 46.5484L68.6312 46.5378C70.3981 46.5231 71.0845 46.2395 71.6673 45.283C71.9321 44.8486 71.9672 44.5802 71.9677 42.9912C71.9682 41.0101 71.8678 40.6573 71.1253 40.0326C70.4375 39.4538 69.8734 39.3794 66.1727 39.3786L62.6972 39.3777L62.6577 31.1876L62.6182 22.9975L62.28 22.1539C61.8025 20.9627 60.2731 19.4403 59.1031 18.9916C57.9475 18.5486 56.135 18.4665 55.1644 18.8134ZM67.3283 22.0077V23.2084H66.1332H64.9381V24.4036V25.5987H66.1332H67.3283V26.7994V28.0003L68.4883 27.9594L69.6483 27.9186L69.6891 26.7587L69.73 25.5987H70.849H71.9682V24.4036V23.2084H70.849H69.73L69.6891 22.0485L69.6483 20.8885L68.4883 20.8477L67.3283 20.8068V22.0077ZM11.5092 22.8831C11.5092 24.6652 11.4866 24.8313 11.2035 25.1327C11.0279 25.3195 10.7335 25.4581 10.5119 25.4581C9.46204 25.4581 9.25957 25.0159 9.25957 22.7234V20.9588H10.3844H11.5092V22.8831ZM69.578 24.3333V25.4581H68.4532H67.3283V24.3333V23.2084H68.4532H69.578V24.3333ZM30.1677 30.1865C30.1133 30.241 30.0687 30.781 30.0687 31.3869V32.4882H28.9439H27.8191V33.6833V34.8784H28.9383H30.0573L30.0982 36.0384L30.139 37.1984H31.3341H32.5293L32.57 36.0384L32.611 34.8784H33.73H34.8492V33.6833V32.4882H33.73H32.611L32.57 31.3282L32.5293 30.1683L31.398 30.1279C30.7757 30.1057 30.2221 30.132 30.1677 30.1865ZM39.4099 30.2812C39.3689 30.3882 39.3541 30.9444 39.377 31.5172L39.4188 32.5585H40.6139H41.809V31.3634V30.1683L40.6468 30.1273C39.7581 30.0961 39.467 30.1323 39.4099 30.2812ZM16.1491 34.8784V37.1281H10.3844H4.61969V34.8784V32.6288H10.3844H16.1491V34.8784ZM19.8445 33.043L20.7982 33.3578L20.7585 34.8436L20.7187 36.3293L19.7422 36.6583C19.2052 36.8394 18.7148 36.9875 18.6525 36.9875C18.5902 36.9875 18.5393 36 18.5393 34.7931C18.5393 33.0967 18.5793 32.6135 18.7151 32.6635C18.8118 32.6991 19.32 32.8699 19.8445 33.043ZM32.459 33.6833V34.7378H31.3341H30.2093V33.6833V32.6288H31.3341H32.459V33.6833ZM13.8995 40.6431V41.768H11.5795H9.25957V40.6431V39.5183H11.5795H13.8995V40.6431ZM17.4414 53.2974C19.2035 58.2852 20.646 62.4454 20.6468 62.542C20.6481 62.6807 18.7417 62.7177 11.5795 62.7177C5.71203 62.7177 2.51066 62.6688 2.51066 62.5791C2.51066 62.4729 8.27086 46.0306 8.85422 44.4715C8.97345 44.1529 8.98146 44.1522 11.6057 44.1903L14.2376 44.2285L17.4414 53.2974ZM37.0988 47.6733V48.7981H31.3341H25.5694V47.6733V46.5484H31.3341H37.0988V47.6733ZM46.3786 47.8887C46.3786 48.7026 46.454 49.4091 46.5704 49.688C46.8149 50.2731 47.5054 50.8554 48.1756 51.0415C48.859 51.2313 60.3331 51.2394 60.9915 51.0505C61.5317 50.8956 62.1924 50.324 62.4901 49.7542C62.6225 49.5007 62.6885 48.9045 62.6885 47.9615V46.5484H63.8133H64.9381V51.118V55.6876H54.5335H44.129V51.118V46.5484H45.2538H46.3786V47.8887ZM60.2982 47.6733V48.7981H54.5335H48.7688V47.6733V46.5484H54.5335H60.2982V47.6733ZM64.9381 59.2031V60.3283L43.6851 60.2927L22.4319 60.2572L22.1026 59.2807C21.9214 58.7437 21.7732 58.2533 21.7732 58.191C21.7732 58.1287 31.4853 58.0778 43.3556 58.0778H64.9381V59.2031ZM64.9381 66.1625V69.6072H42.8031H20.6682L21.5984 68.0957C22.8145 66.1197 23.1792 65.1209 23.1792 63.7659V62.7177H44.0587H64.9381V66.1625ZM20.5078 65.1791C20.5078 65.2183 20.1439 65.8624 19.6993 66.6104C18.7897 68.1406 18.2403 68.7576 17.3756 69.2196C16.7968 69.5289 16.6579 69.538 11.8824 69.579C6.30945 69.6266 6.03331 69.587 4.94406 68.5829C4.42721 68.1066 3.43048 66.6349 2.80494 65.4243L2.64142 65.1079H11.5746C16.4878 65.1079 20.5078 65.14 20.5078 65.1791Z" fill="#00C2FF"/>
</g>
<defs>
<clipPath id="clip0_2014_181">
<rect width="72" height="72" fill="white"/>
</clipPath>
</defs>
</svg>
