<svg width="72" height="72" viewBox="0 0 72 72" fill="none" xmlns="http://www.w3.org/2000/svg">
<g clip-path="url(#clip0_2014_163)">
<path fill-rule="evenodd" clip-rule="evenodd" d="M63.2283 0.188777C62.2677 0.456428 61.1653 1.06388 60.4512 1.71902C60.098 2.04293 57.0568 5.33337 53.6927 9.03113C49.0192 14.1683 47.5229 15.7306 47.3502 15.6537C47.2258 15.5982 46.6811 15.3949 46.1396 15.2015C44.7876 14.7188 42.6559 14.6919 41.217 15.1396C39.0848 15.8029 36.9365 17.5312 36.1326 19.23C36.121 19.2545 34.4686 19.7064 32.4605 20.2341C30.4525 20.7618 28.6811 21.2625 28.5238 21.3466C28.1051 21.5707 27.388 22.7217 27.1116 23.6132C26.7382 24.8181 26.782 28.2122 27.1923 29.8495C29.0269 37.1704 34.7524 42.8966 42.0862 44.745C43.107 45.0024 43.7253 45.0584 45.577 45.0612C47.7505 45.0646 47.8562 45.0512 48.6713 44.671C49.8523 44.12 50.5198 43.6308 50.6907 43.1909C50.7713 42.9838 51.2233 41.327 51.6955 39.5091C52.7569 35.4218 52.6682 35.7117 52.8575 35.7117C53.1887 35.7117 54.1247 34.9284 54.9418 33.9672C57.29 31.205 57.7612 27.9078 56.2825 24.5873C56.2067 24.4171 57.8011 22.8901 62.9052 18.2442C66.6025 14.8788 69.8927 11.8366 70.2166 11.4839C72.1082 9.42382 72.4976 6.09948 71.1398 3.60482C70.291 2.04518 68.7584 0.792154 67.0563 0.266414C66.0151 -0.0551059 64.2332 -0.0912523 63.2283 0.188777ZM9.2197 1.20875C8.69804 1.40678 8.37581 1.86839 8.37581 2.41776C8.37581 2.91326 8.482 3.08091 9.3955 4.02887C10.5803 5.25827 11.0947 5.5397 11.7436 5.3134C12.276 5.12789 12.6467 4.47993 12.5286 3.94195C12.4213 3.45362 10.2602 1.29553 9.78229 1.19947C9.5889 1.16051 9.33573 1.16473 9.2197 1.20875ZM16.3224 1.24391C16.1677 1.30974 15.5189 1.90074 14.8808 2.557C13.6089 3.86502 13.4623 4.26249 13.9995 4.94547C14.6647 5.79118 15.4864 5.52283 16.9505 3.98147C17.7824 3.10566 17.9398 2.8629 17.9398 2.45601C17.9398 1.60664 17.0452 0.936177 16.3224 1.24391ZM36.639 1.29581C34.7525 1.82872 33.5558 3.42606 33.5531 5.41481C33.5469 9.84703 39.4669 11.1992 41.5416 7.23943C42.0531 6.26319 42.0798 4.60088 41.5995 3.6262C40.6952 1.79047 38.5144 0.765993 36.639 1.29581ZM66.9785 2.95447C69.073 3.95475 69.994 6.35447 69.1433 8.59541C68.7692 9.58107 68.7366 9.61313 60.7669 16.8497L54.7191 22.3413L52.1548 19.7829L49.5907 17.2245L49.9887 16.7987C50.2076 16.5643 52.97 13.5245 56.1274 10.0435C59.2848 6.56249 62.1418 3.51706 62.4762 3.27599C63.0103 2.89103 63.5362 2.68752 64.5644 2.46797C65.1279 2.34757 66.1312 2.54982 66.9785 2.95447ZM38.5296 3.85728C39.1132 4.13422 39.4589 4.73534 39.4589 5.47304C39.4589 5.95461 39.3724 6.14969 38.989 6.5331C38.4143 7.10778 37.9151 7.24787 37.2029 7.0345C36.4949 6.82241 36.0365 6.18668 36.0365 5.4172C36.0365 4.68851 36.2603 4.26614 36.8307 3.91832C37.3697 3.58977 37.9239 3.5698 38.5296 3.85728ZM9.58003 7.85462C8.22602 9.2151 8.07933 9.57009 8.56512 10.3114C9.07595 11.0911 9.8595 10.9704 10.9902 9.93831C12.575 8.49147 12.916 7.68809 12.2504 6.96981C11.9934 6.69259 11.7685 6.59765 11.3684 6.59765C10.8795 6.59765 10.7191 6.71031 9.58003 7.85462ZM14.1706 6.88289C13.8139 7.2151 13.6561 7.72916 13.7708 8.18556C13.8152 8.36264 14.384 9.0272 15.0346 9.66236C16.3775 10.9731 16.7481 11.0916 17.5071 10.4529C17.8428 10.1705 17.9398 9.9753 17.9398 9.58247C17.9398 9.1331 17.8002 8.93648 16.7006 7.8369C15.6141 6.7504 15.4007 6.59765 14.9691 6.59765C14.6688 6.59765 14.3573 6.70891 14.1706 6.88289ZM25.3887 7.69105C24.5872 8.10188 0.641615 25.8741 0.406734 26.2324C-0.740104 27.9828 0.669885 30.082 2.99464 30.0849L3.59099 30.0858L3.62756 50.3148L3.66413 70.5438L4.04303 71.0404C4.83333 72.0766 3.01659 71.9987 26.3692 71.9987C43.7662 71.9987 47.4225 71.9659 47.8033 71.8068C48.3384 71.5833 48.9775 70.8735 49.1284 70.3352C49.1865 70.1285 49.2339 65.0399 49.2339 59.0272V48.095L48.8509 47.7121C48.3187 47.1798 47.5661 47.1819 47.1059 47.7167L46.7725 48.1044V58.856V69.6077H45.0144H43.2564L43.254 63.9466C43.252 59.6148 43.2049 58.0654 43.0528 57.3484C42.4962 54.722 40.515 52.591 37.9213 51.8291C36.9926 51.5564 35.1441 51.5398 34.1846 51.7957C31.652 52.4709 29.6458 54.4889 28.985 57.0256C28.8082 57.7041 28.7697 58.9059 28.7697 63.73V69.6077H17.3772H5.98481V49.8498V30.0918L14.9047 30.0537L23.8245 30.0154L24.1874 29.6745C24.6366 29.2523 24.6806 28.4495 24.2815 27.9565L24.0126 27.6244L13.3279 27.5541L2.64317 27.4838L14.4343 18.7658C20.9196 13.9708 26.277 10.0306 26.3397 10.0096C26.4026 9.98866 28.2882 11.3325 30.5303 12.9958C33.9004 15.4964 34.6869 16.0203 35.07 16.0206C36.0542 16.0214 36.6355 14.7535 35.985 14.0245C35.6532 13.6525 27.9524 7.98739 27.3864 7.69878C26.7487 7.37375 26.0135 7.37079 25.3887 7.69105ZM45.1607 17.5051C45.6218 17.6252 46.2838 17.888 46.6319 18.0892C47.3489 18.5037 52.7215 23.7537 53.4796 24.7807C55.2211 27.1402 54.9856 30.2412 52.8887 32.5592L52.1364 33.391L45.3405 26.5952L38.5447 19.7992L39.3717 19.0511C41.1098 17.4788 43.0597 16.958 45.1607 17.5051ZM43.5724 28.3628L50.2869 35.0787L49.5174 38.0053C49.0943 39.6149 48.681 41.1809 48.599 41.4854C48.4156 42.1668 48.0136 42.3986 46.6469 42.6105C45.6204 42.7699 43.1832 42.5862 42.9271 42.3304C42.8621 42.2653 43.0677 41.2624 43.3842 40.1018C43.7007 38.9411 43.9596 37.8069 43.9596 37.5813C43.9596 36.7901 43.0614 36.2285 42.3004 36.5437C41.7472 36.7728 41.6524 36.9799 40.9981 39.3889C40.6755 40.5766 40.3983 41.5637 40.3819 41.5823C40.3658 41.6008 39.8345 41.3655 39.2015 41.0595C38.066 40.5104 36.8084 39.7232 35.7548 38.9022L35.2153 38.4818L37.369 36.3247C39.4295 34.261 39.5229 34.1432 39.5229 33.6042C39.5229 32.8405 39.0952 32.4128 38.3314 32.4128C37.7925 32.4128 37.6746 32.5062 35.6034 34.5741L33.4389 36.7353L32.5846 35.5831C31.8574 34.6025 30.2296 31.6706 30.3484 31.5557C30.3697 31.535 31.3649 31.2519 32.5598 30.9264C33.7548 30.601 34.8448 30.2645 34.9819 30.179C35.5862 29.8017 35.6449 28.8035 35.0953 28.2538C34.6967 27.8552 34.1859 27.9009 31.8134 28.5478C30.66 28.8623 29.6648 29.068 29.6017 29.0049C29.5387 28.9419 29.416 28.304 29.3288 27.5877C29.1188 25.8603 29.4077 23.8468 29.9099 23.5364C30.0445 23.4531 36.4843 21.6919 36.7871 21.6555C36.8261 21.6507 39.8796 24.6691 43.5724 28.3628ZM63.8549 29.1652C63.5297 29.4903 63.5096 29.6015 63.5096 31.0731C63.5096 32.6336 63.6141 33.0793 64.0599 33.4216C64.4326 33.7079 65.1456 33.633 65.5762 33.2626C65.9679 32.9256 65.9709 32.9102 65.9709 31.2344C65.9709 29.6409 65.9518 29.5254 65.63 29.1829C65.165 28.688 64.3402 28.6797 63.8549 29.1652ZM9.86513 34.0347L9.50099 34.4673V40.7224C9.50099 47.7452 9.49115 47.6698 10.4512 47.9505C10.8076 48.0547 12.9696 48.0904 17.1433 48.0613L23.309 48.0183L23.6483 47.6236L23.9877 47.229V40.7607V34.2924L23.6424 33.9472L23.2972 33.6019H16.7632H10.2293L9.86513 34.0347ZM59.0728 33.9472C58.8344 34.1855 58.7276 34.4488 58.7276 34.7974C58.7276 35.1461 58.8344 35.4094 59.0728 35.6477C59.401 35.9759 59.5014 35.9929 61.1044 35.9929C62.6578 35.9929 62.8201 35.9676 63.1641 35.6717C63.4506 35.4253 63.5377 35.2215 63.5377 34.7974C63.5377 34.3734 63.4506 34.1696 63.1641 33.9232C62.8201 33.6273 62.6578 33.6019 61.1044 33.6019C59.5014 33.6019 59.401 33.619 59.0728 33.9472ZM66.4464 33.7436C66.1215 33.9334 65.8535 34.6606 65.9567 35.0721C66.0051 35.2648 66.1824 35.5509 66.3508 35.7077C66.6236 35.962 66.8435 35.9929 68.376 35.9929H70.095L70.4591 35.5602C70.6594 35.3222 70.8232 34.979 70.8232 34.7974C70.8232 34.6159 70.6594 34.2727 70.4591 34.0347L70.095 33.6019L68.3846 33.6062C67.4438 33.6086 66.5717 33.6703 66.4464 33.7436ZM15.5488 37.751V39.5091H13.7907H12.0326V37.751V35.9929H13.7907H15.5488V37.751ZM21.5967 37.751V39.5091H19.8386H18.0805V37.751V35.9929H19.8386H21.5967V37.751ZM64.0599 36.1733C63.6141 36.5156 63.5096 36.9613 63.5096 38.5218C63.5096 39.9934 63.5297 40.1046 63.8549 40.4297C64.3402 40.9152 65.165 40.9069 65.63 40.4119C65.9518 40.0695 65.9709 39.954 65.9709 38.3605C65.9709 36.6847 65.9679 36.6693 65.5762 36.3323C65.1456 35.9619 64.4326 35.887 64.0599 36.1733ZM57.2381 42.053C56.2994 42.2751 55.1894 43.0252 54.6859 43.7776C54.0903 44.6677 53.8994 45.4186 53.9799 46.5556C54.1364 48.7672 55.8697 50.3837 58.0946 50.393C61.8021 50.4085 63.7443 46.1228 61.2612 43.4058C60.1958 42.2401 58.6477 41.7195 57.2381 42.053ZM15.5488 43.7989V45.557H13.7907H12.0326V43.7989V42.0408H13.7907H15.5488V43.7989ZM21.5967 43.7989V45.557H19.8386H18.0805V43.7989V42.0408H19.8386H21.5967V43.7989ZM59.3955 45.054C60.69 46.4664 59.0371 48.6243 57.335 47.7442C56.1088 47.1101 56.1395 45.1858 57.3847 44.6222C58.0827 44.3062 58.864 44.4738 59.3955 45.054ZM9.86513 52.0376L9.50099 52.4702V58.7252C9.50099 65.748 9.49115 65.6726 10.4512 65.9534C10.8076 66.0576 12.9696 66.0933 17.1433 66.0642L23.309 66.0212L23.6483 65.6265L23.9877 65.2318V58.7636V52.2952L23.6424 51.9501L23.2972 51.6048H16.7632H10.2293L9.86513 52.0376ZM15.5488 55.7539V57.512H13.7907H12.0326V55.7539V53.9958H13.7907H15.5488V55.7539ZM21.5967 55.7539V57.512H19.8386H18.0805V55.7539V53.9958H19.8386H21.5967V55.7539ZM37.6673 54.3667C38.5732 54.6581 39.7618 55.7647 40.2614 56.782L40.6544 57.5823L40.6953 63.5968L40.7361 69.6115L35.9836 69.5743L31.231 69.5373L31.2351 63.7005C31.2392 57.978 31.2455 57.848 31.5563 57.0694C32.5279 54.6348 35.0428 53.5225 37.6673 54.3667ZM36.6143 60.1223C36.0296 60.4396 35.9427 60.7389 35.9427 62.4362C35.9427 63.9808 35.9486 64.0093 36.3538 64.4145C36.8691 64.9299 37.4637 64.9556 38.0094 64.4864C38.3836 64.1646 38.4066 64.0761 38.4537 62.7726C38.5177 60.9978 38.3403 60.3721 37.6964 60.103C37.1165 59.8608 37.0953 59.8612 36.6143 60.1223ZM15.5488 61.8017V63.5598H13.7907H12.0326V61.8017V60.0436H13.7907H15.5488V61.8017ZM21.5967 61.8017V63.5598H19.8386H18.0805V61.8017V60.0436H19.8386H21.5967V61.8017Z" fill="#00C2FF"/>
</g>
<defs>
<clipPath id="clip0_2014_163">
<rect width="72" height="72" fill="white"/>
</clipPath>
</defs>
</svg>
