<svg viewBox="0 0 48 48" xmlns="http://www.w3.org/2000/svg" xmlns:xlink="http://www.w3.org/1999/xlink" width="48.000000" height="48.000000" fill="none">
	<rect id="Frame" width="48.000000" height="48.000000" x="0.000000" y="0.000000" fill="rgb(255,255,255)" fill-opacity="0" />
	<path id="Vector" d="M0 0L48 0L48 48L0 48L0 0Z" fill-rule="nonzero" />
	<path id="Vector" d="M18 8L22 18L17 21C19.1419 25.3431 22.6569 28.8581 27 31L30 26L40 30L40 38C40 39.0609 39.5786 40.0783 38.8284 40.8284C38.0783 41.5786 37.0609 42 36 42C28.1985 41.5259 20.8403 38.213 15.3137 32.6863C9.78701 27.1597 6.4741 19.8015 6 12C6 10.9391 6.42143 9.92172 7.17157 9.17157C7.92172 8.42143 8.93913 8 10 8L18 8Z" fill-rule="nonzero" stroke="rgb(0,208,97)" stroke-linecap="round" stroke-linejoin="round" stroke-width="2" />
	<path id="Vector" d="M30 14C31.0609 14 32.0783 14.4214 32.8284 15.1716C33.5786 15.9217 34 16.9391 34 18" fill-rule="nonzero" stroke="rgb(0,208,97)" stroke-linecap="round" stroke-linejoin="round" stroke-width="2" />
	<path id="Vector" d="M30 6C33.1826 6 36.2348 7.26428 38.4853 9.51472C40.7357 11.7652 42 14.8174 42 18" fill-rule="nonzero" stroke="rgb(0,208,97)" stroke-linecap="round" stroke-linejoin="round" stroke-width="2" />
</svg>
