<svg viewBox="0 0 24 24" xmlns="http://www.w3.org/2000/svg" xmlns:xlink="http://www.w3.org/1999/xlink" width="24.000000" height="24.000000" fill="none">
	<rect id="Frame" width="24.000000" height="24.000000" x="0.000000" y="0.000000" fill="rgb(255,255,255)" fill-opacity="0" />
	<path id="Vector" d="M0 0L24 0L24 24L0 24L0 0Z" fill-rule="nonzero" />
	<path id="Vector" d="M19.4993 12.5719L11.9993 19.9999L4.49932 12.5719C4.00463 12.0905 3.61497 11.5119 3.35487 10.8726C3.09478 10.2332 2.96989 9.54688 2.98806 8.85687C3.00624 8.16685 3.16709 7.48807 3.46048 6.86327C3.75388 6.23847 4.17346 5.68119 4.69281 5.22651C5.21216 4.77184 5.82003 4.42962 6.47814 4.22141C7.13624 4.01321 7.83033 3.94352 8.51669 4.01673C9.20306 4.08995 9.86682 4.30449 10.4662 4.64684C11.0656 4.98919 11.5876 5.45193 11.9993 6.00593C12.4129 5.45595 12.9355 4.99725 13.5344 4.65854C14.1334 4.31982 14.7958 4.10838 15.4803 4.03745C16.1647 3.96652 16.8564 4.03763 17.5121 4.24632C18.1678 4.45502 18.7733 4.79681 19.2909 5.2503C19.8084 5.70379 20.2268 6.25922 20.5197 6.88182C20.8127 7.50443 20.9741 8.18082 20.9936 8.86864C21.0132 9.55647 20.8906 10.2409 20.6335 10.8792C20.3763 11.5174 19.9902 12.0958 19.4993 12.5779" fill-rule="nonzero" stroke="rgb(34,34,34)" stroke-linecap="round" stroke-linejoin="round" stroke-width="2" />
</svg>
