<svg viewBox="0 0 24 24" xmlns="http://www.w3.org/2000/svg" xmlns:xlink="http://www.w3.org/1999/xlink" width="24.000000" height="24.000000" fill="none">
	<rect id="Frame" width="24.000000" height="24.000000" x="0.000000" y="0.000000" fill="rgb(255,255,255)" fill-opacity="0" />
	<path id="Vector" d="M0 0L24 0L24 24L0 24L0 0Z" fill-rule="nonzero" />
	<path id="Vector" d="M3.87868 14.1213C4.44129 14.6839 5.20435 15 6 15C6.79565 15 7.55871 14.6839 8.12132 14.1213C8.68393 13.5587 9 12.7956 9 12C9 11.2044 8.68393 10.4413 8.12132 9.87868C7.55871 9.31607 6.79565 9 6 9C5.20435 9 4.44129 9.31607 3.87868 9.87868C3.31607 10.4413 3 11.2044 3 12C3 12.7956 3.31607 13.5587 3.87868 14.1213Z" fill-rule="nonzero" stroke="rgb(34,34,34)" stroke-linecap="round" stroke-linejoin="round" stroke-width="2" />
	<path id="Vector" d="M15.8787 8.12132C16.4413 8.68393 17.2043 9 18 9C18.7957 9 19.5587 8.68393 20.1213 8.12132C20.6839 7.55871 21 6.79565 21 6C21 5.20435 20.6839 4.44129 20.1213 3.87868C19.5587 3.31607 18.7957 3 18 3C17.2043 3 16.4413 3.31607 15.8787 3.87868C15.3161 4.44129 15 5.20435 15 6C15 6.79565 15.3161 7.55871 15.8787 8.12132Z" fill-rule="nonzero" stroke="rgb(34,34,34)" stroke-linecap="round" stroke-linejoin="round" stroke-width="2" />
	<path id="Vector" d="M15.8787 20.1213C16.4413 20.6839 17.2043 21 18 21C18.7957 21 19.5587 20.6839 20.1213 20.1213C20.6839 19.5587 21 18.7957 21 18C21 17.2043 20.6839 16.4413 20.1213 15.8787C19.5587 15.3161 18.7957 15 18 15C17.2043 15 16.4413 15.3161 15.8787 15.8787C15.3161 16.4413 15 17.2043 15 18C15 18.7957 15.3161 19.5587 15.8787 20.1213Z" fill-rule="nonzero" stroke="rgb(34,34,34)" stroke-linecap="round" stroke-linejoin="round" stroke-width="2" />
	<path id="Vector" d="M8.69922 10.7L15.2992 7.30005" fill-rule="nonzero" stroke="rgb(34,34,34)" stroke-linecap="round" stroke-linejoin="round" stroke-width="2" />
	<path id="Vector" d="M8.69922 13.3L15.2992 16.7001" fill-rule="nonzero" stroke="rgb(34,34,34)" stroke-linecap="round" stroke-linejoin="round" stroke-width="2" />
</svg>
