<svg viewBox="0 0 20 20" xmlns="http://www.w3.org/2000/svg" xmlns:xlink="http://www.w3.org/1999/xlink" width="20.000000" height="20.000000" fill="none">
	<rect id="Frame" width="20.000000" height="20.000000" x="0.000000" y="0.000000" fill="rgb(255,255,255)" fill-opacity="0" />
	<path id="Vector" d="M16.3396 5.82918C16.2761 5.58095 16.0965 5.39367 15.8908 5.3359C15.5254 5.23401 13.7513 5.00016 10.0013 5.00016C6.2513 5.00016 4.47759 5.2341 4.11069 5.33619C3.90695 5.39285 3.7274 5.5801 3.66307 5.82918C3.5724 6.18285 3.33464 7.66345 3.33464 10.0002C3.33464 12.3368 3.5724 13.8175 3.66332 14.1722C3.72654 14.4194 3.90612 14.6067 4.11091 14.6642C4.47759 14.7662 6.2513 15.0002 10.0013 15.0002C13.7513 15.0002 15.5254 14.7663 15.8919 14.6642C16.0957 14.6075 16.2752 14.4202 16.3396 14.1712C16.4302 13.8175 16.668 12.3335 16.668 10.0002C16.668 7.66683 16.4302 6.18285 16.3396 5.82918ZM17.954 5.41531C18.3347 6.90016 18.3347 10.0002 18.3347 10.0002C18.3347 10.0002 18.3347 13.1002 17.954 14.585C17.7419 15.4062 17.123 16.0517 16.3385 16.2698C14.9147 16.6668 10.0013 16.6668 10.0013 16.6668C10.0013 16.6668 5.09079 16.6668 3.66413 16.2698C2.8767 16.0487 2.25781 15.4032 2.0486 14.585C1.66797 13.1002 1.66797 10.0002 1.66797 10.0002C1.66797 10.0002 1.66797 6.90016 2.0486 5.41531C2.26071 4.5941 2.87961 3.94865 3.66413 3.73046C5.09079 3.3335 10.0013 3.3335 10.0013 3.3335C10.0013 3.3335 14.9147 3.3335 16.3385 3.73046C17.1259 3.95168 17.7448 4.59713 17.954 5.41531ZM8.33465 12.9168L8.33465 7.0835L13.3347 10.0002L8.33465 12.9168Z" fill="rgb(255,255,255)" fill-rule="nonzero" />
</svg>
