<svg viewBox="0 0 40 40" xmlns="http://www.w3.org/2000/svg" xmlns:xlink="http://www.w3.org/1999/xlink" width="40.000000" height="40.000000" fill="none">
	<rect id="Frame" width="40.000000" height="40.000000" x="0.000000" y="0.000000" fill="rgb(255,255,255)" fill-opacity="0" />
	<path id="Vector" d="M0 0L40 0L40 40L0 40L0 0Z" fill-rule="nonzero" />
	<path id="Vector" d="M29.9993 5C31.0937 5 32.1773 5.21555 33.1884 5.63434C34.1994 6.05313 35.1181 6.66695 35.8919 7.44078C36.6657 8.2146 37.2796 9.13326 37.6983 10.1443C38.1171 11.1554 38.3327 12.239 38.3327 13.3333L38.3327 26.6667C38.3327 27.761 38.1171 28.8446 37.6983 29.8557C37.2796 30.8667 36.6657 31.7854 35.8919 32.5592C35.1181 33.333 34.1994 33.9469 33.1884 34.3657C32.1773 34.7845 31.0937 35 29.9993 35L9.99935 35C8.905 35 7.82137 34.7845 6.81032 34.3657C5.79927 33.9469 4.88061 33.333 4.10679 32.5592C2.54399 30.9964 1.66602 28.8768 1.66602 26.6667L1.66602 13.3333C1.66602 11.1232 2.54399 9.00358 4.10679 7.44078C5.6696 5.87797 7.78921 5 9.99935 5L29.9993 5ZM14.9993 15L14.9993 25C14.9996 25.2947 15.078 25.5842 15.2265 25.8387C15.3751 26.0933 15.5885 26.3039 15.845 26.4491C16.1015 26.5943 16.3919 26.6689 16.6866 26.6652C16.9814 26.6616 17.2699 26.5798 17.5227 26.4283L25.856 21.4283C26.1024 21.2802 26.3063 21.0708 26.4479 20.8205C26.5894 20.5702 26.6638 20.2875 26.6638 20C26.6638 19.7125 26.5894 19.4298 26.4479 19.1795C26.3063 18.9292 26.1024 18.7198 25.856 18.5717L17.5227 13.5717C17.2699 13.4202 16.9814 13.3384 16.6866 13.3348C16.3919 13.3311 16.1015 13.4057 15.845 13.5509C15.5885 13.6961 15.3751 13.9067 15.2265 14.1613C15.078 14.4158 14.9996 14.7053 14.9993 15Z" fill="rgb(255,36,36)" fill-rule="nonzero" />
</svg>
