<svg width="72" height="72" viewBox="0 0 72 72" fill="none" xmlns="http://www.w3.org/2000/svg">
<path d="M72 36C72 36.6094 71.7579 37.1939 71.327 37.6248C70.896 38.0558 70.3116 38.2979 69.7021 38.2979H38.2979V69.7021C38.2979 70.3116 38.0558 70.896 37.6248 71.327C37.1939 71.7579 36.6094 72 36 72C35.3906 72 34.8061 71.7579 34.3752 71.327C33.9442 70.896 33.7021 70.3116 33.7021 69.7021V38.2979H2.29787C1.68844 38.2979 1.10397 38.0558 0.673031 37.6248C0.242096 37.1939 0 36.6094 0 36C0 35.3906 0.242096 34.8061 0.673031 34.3752C1.10397 33.9442 1.68844 33.7021 2.29787 33.7021H33.7021V2.29787C33.7021 1.68844 33.9442 1.10397 34.3752 0.673031C34.8061 0.242096 35.3906 0 36 0C36.6094 0 37.1939 0.242096 37.6248 0.673031C38.0558 1.10397 38.2979 1.68844 38.2979 2.29787V33.7021H69.7021C70.3116 33.7021 70.896 33.9442 71.327 34.3752C71.7579 34.8061 72 35.3906 72 36Z" fill="white"/>
</svg>
