<svg viewBox="0 0 24 24" xmlns="http://www.w3.org/2000/svg" xmlns:xlink="http://www.w3.org/1999/xlink" width="24.000000" height="24.000000" fill="none">
	<rect id="Frame" width="24.000000" height="24.000000" x="0.000000" y="0.000000" fill="rgb(255,255,255)" fill-opacity="0" />
	<path id="Vector" d="M0 0L24 0L24 24L0 24L0 0Z" fill-rule="nonzero" />
	<path id="Vector" d="M17 3.33989C18.5202 4.21758 19.7826 5.47997 20.6603 7.00017C21.538 8.52038 22 10.2448 22 12.0002C22 13.7556 21.5379 15.48 20.6602 17.0002C19.7825 18.5204 18.5201 19.7828 16.9999 20.6605C15.4797 21.5381 13.7552 22.0002 11.9998 22.0001C10.2445 22.0001 8.52002 21.538 6.99984 20.6603C5.47965 19.7826 4.21729 18.5202 3.33963 17C2.46198 15.4797 1.99996 13.7553 2 11.9999L2.005 11.6759C2.061 9.94888 2.56355 8.26585 3.46364 6.79089C4.36373 5.31592 5.63065 4.09934 7.14089 3.25977C8.65113 2.42021 10.3531 1.98629 12.081 2.00033C13.8089 2.01437 15.5036 2.47589 17 3.33989ZM12 5.99989C11.7348 5.99989 11.4804 6.10525 11.2929 6.29279C11.1054 6.48032 11 6.73468 11 6.99989L11 12.0259L11.009 12.1309L11.029 12.2379L11.069 12.3669L11.117 12.4689L11.163 12.5469L11.205 12.6069L11.274 12.6869L11.362 12.7699L11.445 12.8319L14.445 14.8319C14.5543 14.9048 14.6768 14.9554 14.8056 14.9809C14.9345 15.0065 15.0671 15.0064 15.1959 14.9806C15.3247 14.9549 15.4471 14.9041 15.5563 14.831C15.6654 14.758 15.7591 14.6642 15.832 14.5549C15.9049 14.4456 15.9555 14.3231 15.9811 14.1943C16.0066 14.0654 16.0065 13.9328 15.9808 13.804C15.955 13.6752 15.9042 13.5528 15.8311 13.4436C15.7581 13.3345 15.6643 13.2408 15.555 13.1679L13 11.4639L13 6.99989C13 6.75496 12.91 6.51856 12.7473 6.33552C12.5845 6.15249 12.3603 6.03555 12.117 6.00689L12 5.99989Z" fill="rgb(0,208,97)" fill-rule="nonzero" />
</svg>
