<svg viewBox="0 0 24 24" xmlns="http://www.w3.org/2000/svg" xmlns:xlink="http://www.w3.org/1999/xlink" width="24.000000" height="24.000000" fill="none">
	<rect id="Frame" width="24.000000" height="24.000000" x="0.000000" y="0.000000" fill="rgb(255,255,255)" fill-opacity="0" />
	<path id="Vector" d="M0 0L24 0L24 24L0 24L0 0Z" fill-rule="nonzero" />
	<path id="Vector" d="M22 7.53516L22 17.0002C22 17.7654 21.7077 18.5017 21.1827 19.0584C20.6578 19.6152 19.9399 19.9503 19.176 19.9952L19 20.0002L5 20.0002C4.23479 20.0002 3.49849 19.7078 2.94174 19.1829C2.38499 18.6579 2.04989 17.9401 2.005 17.1762L2 17.0002L2 7.53516L11.445 13.8322L11.561 13.8982C11.6977 13.965 11.8478 13.9997 12 13.9997C12.1522 13.9997 12.3023 13.965 12.439 13.8982L12.555 13.8322L22 7.53516Z" fill="rgb(0,208,97)" fill-rule="nonzero" />
	<path id="Vector" d="M19.0001 4C20.0801 4 21.0271 4.57 21.5551 5.427L12.0001 11.797L2.44507 5.427C2.6958 5.01977 3.04028 4.6784 3.44978 4.43138C3.85927 4.18436 4.3219 4.03886 4.79907 4.007L5.00007 4L19.0001 4Z" fill="rgb(0,208,97)" fill-rule="nonzero" />
</svg>
