<svg viewBox="0 0 80 80" xmlns="http://www.w3.org/2000/svg" xmlns:xlink="http://www.w3.org/1999/xlink" width="80.000000" height="80.000000" fill="none">
	<rect id="Frame 32" width="80.000000" height="80.000000" x="0.000000" y="0.000000" />
	<path id="service-tool 1 (Traced)" d="M22.5794 0.402155L22.1111 0.804142L22.0572 4.32783L22.0033 7.85135L21.0672 8.26501L20.1308 8.67867L17.6045 6.17337C15.5102 4.09657 14.995 3.66807 14.5925 3.66807C14.178 3.66807 13.3439 4.43053 8.88918 8.88141C4.11918 13.6471 3.67128 14.1426 3.67128 14.6535C3.67128 15.149 3.9518 15.4978 6.1494 17.735L8.62751 20.2578L8.20966 21.2165L7.79163 22.1752L4.24167 22.1752L0.691703 22.1752L0.345935 22.6145C0.00801003 23.0437 0 23.2217 0 30.2916L0 37.5296L0.409682 37.9387C0.818362 38.3472 0.826539 38.3481 4.30541 38.3481L7.79163 38.3481L8.21116 39.3068L8.63069 40.2655L6.1509 42.7786C3.93712 45.0223 3.67128 45.3522 3.67128 45.8576C3.67128 46.3775 4.08847 46.8406 8.80274 51.554C12.896 55.6465 14.0453 56.7063 14.4837 56.7921C15.0135 56.8958 15.1239 56.8098 17.5764 54.3775L20.1198 51.8554L21.0735 52.2295L22.027 52.6035L22.0274 54.3177L22.0277 56.0317L21.447 56.541C19.8857 57.9107 18.292 60.7128 17.6696 63.1826C16.9281 66.1244 17.5774 71.2245 18.8173 72.1989C19.6762 72.874 19.9436 72.6861 24.2822 68.3559L28.2891 64.357L30.6202 66.6906L32.9513 69.0242L28.908 73.0764C25.2901 76.7021 24.8646 77.1856 24.8646 77.6702C24.8646 78.4306 25.4413 78.9375 26.775 79.349C33.3696 81.3841 40.1408 78.5291 43.1509 72.4445C44.3002 70.1212 44.6141 68.6073 44.5148 65.867C44.4698 64.6243 44.385 63.4952 44.3262 63.3577C44.251 63.1813 46.9894 60.3405 53.6214 53.7158L63.0234 44.324L64.413 44.5269C71.9917 45.6342 78.9556 40.2288 79.9275 32.4848C80.2486 29.9257 79.4564 25.9456 78.4717 25.1718C77.6128 24.4967 77.3454 24.6846 73.0068 29.0148L68.9999 33.0137L66.6688 30.6801L64.3377 28.3465L68.381 24.2943C72.1738 20.4934 72.4244 20.2046 72.4244 19.6369C72.4244 18.8792 71.9715 18.4921 70.538 18.0239C67.5104 17.0354 64.4112 17.1394 61.2066 18.3374C59.9614 18.8029 57.9227 20.1427 56.7297 21.2797L55.7763 22.1882L54.2394 22.14L52.7023 22.0918L52.2884 21.1103L51.8746 20.1287L54.4121 17.5744C56.8593 15.1108 56.9456 15.0004 56.8418 14.4711C56.7559 14.0331 55.6952 12.8848 51.599 8.79504C46.8816 4.0849 46.418 3.66807 45.8977 3.66807C45.3919 3.66807 45.0617 3.93368 42.816 6.14553L40.3007 8.62314L39.3411 8.20398L38.3816 7.78482L38.3816 4.30165C38.3816 0.825817 38.3808 0.817647 37.9719 0.409324L37.5624 0L30.3049 0L23.0476 0L22.5794 0.402155ZM35.7116 5.89643C35.7116 9.547 35.7855 9.79126 37.0075 10.1757C37.3503 10.2836 38.2871 10.6694 39.0897 11.0331C40.1096 11.4954 40.662 11.6596 40.9253 11.5789C41.1324 11.5154 42.3361 10.4428 43.6002 9.19553L45.8984 6.92749L49.7706 10.7963L53.643 14.6653L51.2688 17.0575C49.9632 18.3734 48.8948 19.5844 48.8948 19.7484C48.8948 19.9126 49.1848 20.6946 49.5393 21.4862C49.8939 22.2779 50.2722 23.1977 50.38 23.5305C50.7086 24.5444 51.0784 24.7517 52.6781 24.8187C53.9095 24.8704 54.076 24.9131 53.9787 25.1522C52.9059 27.7897 52.6579 29.1427 52.7799 31.6942C52.8299 32.7402 52.9175 33.7463 52.9744 33.9297C53.0594 34.2026 51.3739 35.9648 43.6824 43.6444L34.2864 53.0259L32.5952 52.8276C30.5212 52.5845 28.4898 52.7929 26.6812 53.4342C24.5083 54.2048 24.6977 54.2877 24.6977 52.5655C24.6977 50.8133 24.6558 50.7523 23.029 50.1334C22.4324 49.9065 21.5312 49.5262 21.0264 49.2881C20.5216 49.0502 19.9643 48.8546 19.7877 48.8538C19.5973 48.8528 18.4948 49.8151 17.0725 51.224L14.6781 53.5961L10.8031 49.7244L6.92821 45.8528L9.12965 43.6428C10.3403 42.4271 11.403 41.2393 11.4911 41.0029C11.6196 40.6579 11.5452 40.3298 11.1131 39.3356C10.8173 38.655 10.4308 37.6955 10.2541 37.2034C9.71588 35.7049 9.64613 35.6804 5.90159 35.6804L2.67002 35.6804L2.67002 30.2616L2.67002 24.8429L5.71552 24.8425C9.63578 24.8422 9.66816 24.8284 10.4376 22.8156C10.7412 22.0216 11.1186 21.1226 11.2763 20.8178C11.8549 19.7001 11.7413 19.4885 9.18889 16.9338L6.8426 14.5854L10.64 10.7941C12.7287 8.70884 14.5131 7.00269 14.6054 7.00269C14.6978 7.00269 15.7485 7.98423 16.9403 9.18386C18.1321 10.3833 19.2806 11.4336 19.4925 11.5176C19.7916 11.6361 20.2198 11.5273 21.4116 11.0296C22.2552 10.6773 23.2084 10.292 23.5296 10.1734C24.6734 9.75141 24.6977 9.66621 24.6977 6.09501C24.6977 4.33216 24.7478 2.83992 24.809 2.7789C24.8701 2.71771 27.3482 2.66769 30.316 2.66769L35.7116 2.66769L35.7116 5.89643ZM29.7038 12.8904C29.1685 13.1571 28.8282 13.8662 28.9684 14.4237C29.1473 15.1365 29.6983 15.3612 31.511 15.4609C33.0409 15.5451 33.1887 15.5256 33.5191 15.1955C34.1705 14.5448 33.9345 13.361 33.0896 13.0415C32.3211 12.7511 30.1761 12.6552 29.7038 12.8904ZM37.7667 15.0069C36.9912 15.319 36.7894 16.5534 37.4221 17.1151C37.6287 17.2985 38.294 17.7957 38.9009 18.2198C40.3472 19.231 42.0789 21.1161 42.9937 22.6754C44.2493 24.8154 44.8325 26.6884 45.0405 29.2482C45.1561 30.6734 45.2269 30.9449 45.5514 31.2073C46.0961 31.6481 46.9187 31.5996 47.3893 31.0993C47.7601 30.705 47.7727 30.6096 47.6721 28.9735C47.3482 23.7081 44.4254 18.658 39.9946 15.709C38.6663 14.825 38.4153 14.7458 37.7667 15.0069ZM29.0365 18.127C24.0119 18.7 19.8693 22.2292 18.5028 27.1012C18.037 28.7615 18.0016 31.3614 18.4212 33.096C20.2707 40.7428 28.8783 44.6225 35.9263 40.9861C37.739 40.0507 40.0308 37.8053 40.9163 36.0972C41.924 34.1533 42.241 32.9812 42.3407 30.8268C42.4536 28.3957 42.1487 26.8987 41.1291 24.8742C39.2085 21.0614 35.8736 18.7055 31.6471 18.1761C30.2938 18.0066 30.1204 18.0032 29.0365 18.127ZM67.9735 20.1167L68.6121 20.2223L64.9398 23.908C62.6977 26.1584 61.225 27.7655 61.1586 28.0344C61.0923 28.3025 61.1481 28.6617 61.3009 28.9514C61.4391 29.2135 63.0827 30.9474 64.9533 32.8043C68.2078 36.0348 68.3825 36.1806 69.0043 36.1806C69.6281 36.1806 69.8016 36.0335 73.3552 32.4958C75.7986 30.0632 77.0991 28.8796 77.1815 29.013C77.2501 29.1238 77.3065 29.9755 77.3065 30.9054C77.3072 34.1128 76.3587 36.417 74.0975 38.7022C72.9289 39.883 72.4212 40.261 71.2563 40.817C68.889 41.9468 66.523 42.2624 64.164 41.7632C63.5217 41.6271 62.8075 41.5159 62.577 41.5159C62.2451 41.5159 59.9954 43.6774 51.7716 51.8981C46.0593 57.6083 41.3854 62.4065 41.3854 62.5607C41.3854 62.7149 41.498 63.2733 41.6357 63.8013C41.9646 65.0631 41.9589 67.7757 41.6245 69.0859C41.1342 71.0074 40.2711 72.4813 38.7197 74.0468C37.5716 75.205 37.0229 75.616 35.8784 76.1756C33.7741 77.2041 31.6732 77.5578 29.4644 77.2553L28.6776 77.1474L32.445 73.3705C35.8876 69.919 36.2122 69.5442 36.2122 69.0223C36.2122 68.5008 35.8976 68.137 32.5785 64.8207C29.0794 61.3249 28.9204 61.1902 28.2899 61.1902C27.6594 61.1902 27.4972 61.3274 23.9368 64.8719C21.0955 67.7005 20.2136 68.4895 20.1318 68.2764C19.9329 67.7587 20.0289 64.7802 20.2785 63.7225C21.1331 60.1002 24.0995 56.9839 27.7501 55.8728C29.2454 55.4178 31.1835 55.2746 32.5409 55.519C33.1375 55.6264 33.9894 55.7561 34.434 55.8073L35.2425 55.9003L45.3998 45.7569C50.9863 40.1779 55.6425 35.4076 55.7468 35.1562C55.8953 34.7977 55.8786 34.4694 55.6697 33.6367C55.3321 32.2921 55.3249 29.7227 55.655 28.4209C56.4368 25.3379 58.6975 22.5176 61.4568 21.1833C63.5676 20.1624 65.9191 19.7776 67.9735 20.1167ZM32.5409 21.0329C34.8595 21.5218 37.6083 23.6824 38.6685 25.8491C40.538 29.6699 39.8781 33.9747 36.9732 36.9113C35.2021 38.7014 32.8365 39.6819 30.2881 39.6819C27.6364 39.6819 25.4744 38.7911 23.6122 36.9312C21.6809 35.0026 20.805 32.9211 20.805 30.2616C20.805 27.8033 21.6123 25.6902 23.2277 23.9207C25.6411 21.2772 28.9025 20.2658 32.5409 21.0329ZM57.0479 38.4909C56.1112 39.4268 56.0086 39.9687 56.6471 40.6064C57.2942 41.2532 57.9963 41.1603 58.8593 40.3141C59.8344 39.3579 59.8488 38.4176 58.8954 37.9251C58.1625 37.5464 57.9185 37.6211 57.0479 38.4909ZM45.847 49.6481C37.1205 58.3736 37.3153 58.1376 38.06 59.0835C38.322 59.4163 38.5551 59.5229 39.0217 59.5229C39.6123 59.5229 39.9746 59.1861 47.7707 51.3907C56.4972 42.6652 56.3025 42.9011 55.5577 41.9553C55.2957 41.6225 55.0626 41.5159 54.596 41.5159C54.0054 41.5159 53.6431 41.8527 45.847 49.6481Z" fill="rgb(0,208,97)" fill-rule="evenodd" />
</svg>
