<svg viewBox="0 0 80 80" xmlns="http://www.w3.org/2000/svg" xmlns:xlink="http://www.w3.org/1999/xlink" width="80.000000" height="80.000000" fill="none">
	<rect id="Frame 32" width="80.000000" height="80.000000" x="0.000000" y="0.000000" />
	<path id="term 1 (Traced)" d="M34.187 0.271783C33.4623 0.517866 33.149 0.760665 32.2267 1.79096C29.4537 4.88903 27.7663 6.212 24.8907 7.54247C20.7026 9.48033 16.5792 10.2519 9.48715 10.4246C4.67782 10.5419 4.5246 10.5714 3.70755 11.5395C3.48392 11.8045 3.22375 12.2818 3.1295 12.6004C3.00874 13.008 2.97549 17.5568 3.01705 27.954C3.08229 44.2888 3.05093 43.7282 4.14587 48.1256C5.87549 55.073 9.76991 61.5723 15.0784 66.3704C17.3972 68.4663 30.2512 78.3287 31.4712 78.9481C33.0263 79.7373 34.6766 80.0849 36.2906 79.9629C38.7485 79.777 39.914 79.2175 43.314 76.5913C44.7199 75.5051 46.1243 74.4242 46.4345 74.1891L46.9986 73.7616L46.7141 74.5827C46.1641 76.1696 46.4853 77.5951 47.6557 78.7619C48.9862 80.0883 48.2916 80.0295 62.036 79.9806L74.0987 79.9378L74.7485 79.5913C75.9857 78.9317 77 77.3273 77 76.0297C77 74.9856 76.5344 73.9086 75.741 73.1176C75.3204 72.6983 74.9023 72.3552 74.812 72.3552C74.6986 72.3552 74.6476 67.8955 74.6476 57.9822C74.6476 43.8335 74.6525 43.6078 74.9556 43.5118C75.8257 43.2366 77 41.2148 77 39.9924C77 39.0304 76.5131 37.9285 75.7529 37.1707C74.5121 35.9339 74.4632 35.9275 66.3132 35.9275L59.2905 35.9275L59.2454 28.4621C59.2051 21.7859 59.1722 20.9455 58.934 20.5118C58.4823 19.6899 57.9951 19.4983 55.3728 19.1118C51.3221 18.5147 48.3545 17.7898 44.7726 16.5223C43.1631 15.9527 40.9966 14.9318 37.559 13.1231C36.9262 12.7901 36.5619 12.7107 35.6674 12.7107C34.7106 12.7107 34.4324 12.7804 33.6282 13.2216C27.6076 16.5254 22.6685 18.1564 15.5733 19.1835C13.3745 19.5019 12.9613 19.6791 12.4408 20.5278C12.1805 20.9522 12.1485 21.4746 12.1042 26.0207C12.0635 30.2069 12.0944 31.1378 12.2899 31.6043C12.5452 32.2136 13.0369 32.4387 13.7318 32.2648C14.5084 32.0705 14.5839 31.5504 14.5839 26.4026L14.5839 21.7146L15.0936 21.6362C15.374 21.5931 16.3443 21.4446 17.25 21.306C23.5203 20.347 29.832 18.2091 34.2718 15.5401C34.794 15.2262 35.4149 14.9783 35.6793 14.9781C35.9508 14.9778 36.6187 15.2504 37.2476 15.6183C42.3867 18.6249 48.6608 20.6136 56.1816 21.6198L56.9265 21.7196L56.9265 28.8234L56.9265 35.9275L53.5049 35.9275C49.3525 35.9275 48.7942 36.0463 47.6663 37.1707C46.9062 37.9285 46.4193 39.0304 46.4193 39.9924C46.4193 40.9604 46.9061 42.0559 47.6783 42.8257C48.0989 43.2451 48.5174 43.5882 48.6082 43.5882C48.723 43.5882 48.7611 47.5395 48.7334 56.5157L48.6932 69.4431L44.0953 73.0035C41.5665 74.9617 39.1318 76.742 38.6848 76.9596C37.0681 77.7469 34.9104 77.8467 33.2336 77.2115C32.2452 76.837 32.0499 76.6949 24.2286 70.6523C19.1025 66.692 17.1866 65.1118 15.5879 63.5265C10.1932 58.1765 7.01372 51.9145 5.70251 44.0573C5.45881 42.5969 5.42242 40.8088 5.37177 27.856C5.32002 14.5841 5.33758 13.274 5.56968 13.0426C5.78767 12.8253 6.27853 12.7888 8.98861 12.7884C13.8545 12.7874 17.2942 12.3881 21.1052 11.3816C26.4866 9.96014 30.6848 7.40098 33.575 3.77994C35.1902 1.75641 36.1771 1.79158 37.934 3.93503C40.9502 7.61501 45.1639 10.0769 50.9496 11.54C54.3006 12.3874 56.5534 12.6508 61.2392 12.743C63.568 12.7888 65.597 12.8908 65.7479 12.9694C66.0046 13.1032 66.0223 13.7106 66.0223 22.3384L66.0223 31.5641L66.4073 31.9478C66.8979 32.437 67.4991 32.437 67.9897 31.9478L68.3747 31.5641L68.3747 22.2496C68.3747 12.2013 68.3825 12.3036 67.5438 11.4082C66.7619 10.5732 66.5704 10.5403 61.788 10.4209C57.0082 10.3014 54.5715 10.0299 51.6454 9.29053C48.5038 8.49678 45.645 7.28247 43.3657 5.77362C42.1566 4.97315 40.1904 3.0961 39.3742 1.96325C38.1117 0.210497 36.202 -0.412213 34.187 0.271783ZM34.681 6.77389C33.8874 7.4396 33.886 8.44284 34.6774 9.17797C35.1852 9.64965 36.2077 9.62495 36.7454 9.12809C38.2868 7.70397 36.2887 5.42529 34.681 6.77389ZM8.3886 16.2931C6.88089 17.7962 8.9345 20.0194 10.5233 18.604C10.9215 18.2494 11.019 18.0374 11.0333 17.4949C11.0482 16.9241 10.9748 16.7563 10.541 16.3699C9.87012 15.7723 8.94423 15.7392 8.3886 16.2931ZM60.7102 16.2434C59.9189 16.9785 59.9203 17.9817 60.7138 18.6474C62.0068 19.7321 63.9416 18.2869 63.1811 16.8043C62.7172 15.9 61.4015 15.6013 60.7102 16.2434ZM43.7918 24.1979C43.4249 24.3639 42.947 24.6908 42.7298 24.9244C42.5128 25.158 39.6488 28.7498 36.3657 32.9062C33.0825 37.0627 30.3355 40.4257 30.261 40.3799C30.1867 40.3341 28.8953 38.698 27.3913 36.744C25.8874 34.7901 24.4888 33.0365 24.2837 32.8472C22.8492 31.523 20.2241 31.8746 19.0616 33.5465C18.4655 34.4039 18.316 35.9286 18.7368 36.8591C18.8855 37.1876 20.9952 40.0497 23.4251 43.2193C27.5456 48.5941 27.9 49.011 28.6908 49.412C29.9314 50.0412 31.223 49.9604 32.3419 49.1837C32.7756 48.8826 48.0452 29.6749 48.4316 28.9444C48.7445 28.353 48.8397 26.9916 48.6154 26.3145C48.3584 25.5381 47.438 24.5365 46.6545 24.1809C45.8379 23.81 44.633 23.8172 43.7918 24.1979ZM46.0343 26.6181C46.4856 27.0679 46.5254 27.5771 46.1508 28.1102C46.0032 28.3203 42.5449 32.7156 38.4659 37.8774C33.64 43.9842 30.909 47.3151 30.6473 47.4134C30.3518 47.5245 30.1332 47.5026 29.8244 47.3309C29.5931 47.2024 27.4818 44.6016 25.1326 41.5514C20.5652 35.6213 20.4851 35.4824 21.1978 34.7258C21.6048 34.294 22.2638 34.2555 22.7101 34.6376C22.8859 34.7882 24.4534 36.7756 26.1936 39.0543C27.9338 41.333 29.4697 43.2854 29.6066 43.3928C30.0451 43.7366 30.7977 43.6283 31.2351 43.1583C31.4551 42.9219 34.4035 39.2107 37.7873 34.9112C41.1711 30.6118 44.1459 26.9006 44.3978 26.6642C44.9649 26.132 45.5309 26.1161 46.0343 26.6181ZM12.554 35.9187C12.0813 36.3899 12.0181 37.1562 12.207 40.1302C12.4822 44.4644 13.2387 47.5196 14.9205 51.0872C16.3115 54.0383 18.941 57.5951 21.2645 59.6685C22.2031 60.5062 33.4119 69.2383 34.4498 69.9405C35.1372 70.4054 36.1013 70.4448 36.7746 70.0355C37.4638 69.6164 45.8368 63.1204 46.0614 62.8303C46.2995 62.5231 46.3148 61.9572 46.0961 61.5497C45.8934 61.1723 45.2305 60.9003 44.8255 61.0285C44.6617 61.0802 42.5407 62.6604 40.1119 64.5399L35.6961 67.9571L35.1375 67.5253C26.2438 60.6483 23.9934 58.8871 23.1362 58.1327C19.9172 55.2998 17.3346 51.4249 15.9434 47.3404C15.0284 44.654 14.7235 42.913 14.6434 39.9142C14.6043 38.4524 14.5358 37.0237 14.4911 36.7395C14.3851 36.0668 13.9182 35.6148 13.3293 35.6148C13.0706 35.6148 12.7217 35.7516 12.554 35.9187ZM73.7067 38.5465C74.8495 39.1156 74.9011 40.7466 73.7976 41.4174C73.3366 41.6976 72.7874 41.711 61.7096 41.711C50.4831 41.711 50.0883 41.701 49.6034 41.4063C48.8954 40.9759 48.6375 40.0869 49 39.3254C49.5187 38.2354 48.9777 38.2801 61.7096 38.2763C72.2989 38.2734 73.1991 38.2935 73.7067 38.5465ZM70.0997 46.2751C70.0997 48.8906 69.8802 49.9756 68.9767 51.8251C67.92 53.9887 66.1017 55.708 64.101 56.4352C63.0823 56.8055 62.729 57.1809 62.729 57.8935C62.729 58.6052 63.1005 59.0068 64.1026 59.3788C66.559 60.2906 68.4032 62.2719 69.5054 65.1831C69.9772 66.4296 70.0041 66.6216 70.0659 69.1892L70.1308 71.8861L61.7252 71.8861L53.3195 71.8861L53.3195 69.6442C53.3195 66.974 53.607 65.6279 54.5721 63.7786C55.6931 61.6306 57.6096 59.8666 59.3505 59.3806C61.1678 58.8735 61.1493 56.9104 59.3225 56.42C58.9817 56.3285 58.2855 55.983 57.7755 55.6522C56.0127 54.509 54.643 52.6722 53.8499 50.3875C53.4619 49.27 53.4094 48.8706 53.3517 46.5978L53.2872 44.0573L61.6935 44.0573L70.0997 44.0573L70.0997 46.2751ZM72.2882 57.9326L72.2813 66.0233L71.925 64.9289C71.0929 62.3724 69.1889 59.6835 67.2738 58.3604C66.6676 57.9417 66.6419 57.8954 66.9101 57.7051C68.0436 56.9012 68.8202 56.1833 69.5808 55.2357C70.5377 54.0434 71.676 51.8715 71.9957 50.6277C72.1068 50.1956 72.2197 49.8419 72.2465 49.8419C72.2733 49.8419 72.2921 53.4828 72.2882 57.9326ZM51.4372 50.6236C51.4395 50.7526 51.6799 51.4027 51.9713 52.0681L52.5012 53.2782L51.8824 54.1396C51.5421 54.6135 51.2322 55.0012 51.1938 55.0012C51.1554 55.0012 51.1251 53.858 51.1264 52.4606C51.1281 50.7626 51.1792 49.9978 51.2808 50.1546C51.3644 50.2836 51.4348 50.4946 51.4372 50.6236ZM54.9529 56.3743C55.4778 56.8715 56.1119 57.4237 56.3621 57.6013L56.8172 57.9242L56.1215 58.4012C54.4004 59.5817 52.6364 61.9326 51.812 64.1442C51.5871 64.7479 51.3451 65.3823 51.2741 65.5543C51.201 65.7317 51.1406 64.3254 51.1347 62.3036L51.124 58.7403L52.1098 57.6134C52.6519 56.9936 53.2651 56.2579 53.4723 55.9783C53.6794 55.6988 53.8827 55.4702 53.9238 55.4702C53.9649 55.4702 54.428 55.877 54.9529 56.3743ZM35.0205 72.115C33.9448 72.5814 33.7598 74.0014 34.6749 74.7691C35.9944 75.876 37.8847 74.3599 37.0917 72.8309C36.9419 72.542 36.6066 72.2367 36.2988 72.1083C35.6583 71.8416 35.6509 71.8416 35.0205 72.115ZM73.7067 74.5052C74.8495 75.0743 74.9011 76.7052 73.7976 77.3761C73.3366 77.6563 72.7874 77.6697 61.7096 77.6697C50.4831 77.6697 50.0883 77.6597 49.6034 77.365C48.8954 76.9346 48.6375 76.0456 49 75.2841C49.5187 74.1941 48.9777 74.2388 61.7096 74.235C72.2989 74.2321 73.1991 74.2522 73.7067 74.5052Z" fill="rgb(0,208,97)" fill-rule="evenodd" />
</svg>
