<svg width="271" height="291" viewBox="0 0 271 291" fill="none" xmlns="http://www.w3.org/2000/svg">
<g clip-path="url(#clip0_2399_2)">
<mask id="mask0_2399_2" style="mask-type:luminance" maskUnits="userSpaceOnUse" x="0" y="0" width="271" height="291">
<path d="M271 0H0V291H271V0Z" fill="white"/>
</mask>
<g mask="url(#mask0_2399_2)">
<mask id="mask1_2399_2" style="mask-type:luminance" maskUnits="userSpaceOnUse" x="0" y="0" width="271" height="291">
<path d="M271 0H0V291H271V0Z" fill="white"/>
</mask>
<g mask="url(#mask1_2399_2)">
<mask id="mask2_2399_2" style="mask-type:luminance" maskUnits="userSpaceOnUse" x="0" y="0" width="271" height="291">
<path d="M271 0H0V291H271V0Z" fill="white"/>
</mask>
<g mask="url(#mask2_2399_2)">
<path fill-rule="evenodd" clip-rule="evenodd" d="M63.2015 1.56386C46.5523 4.5954 21.9601 18.3676 13.6003 29.3433C9.24467 35.0609 7.64461 42.3568 11.0304 41.0563C21.9136 36.8743 61.088 36.5714 73.6601 40.5713C82.126 43.2655 96.736 52.0719 99.9984 56.4478C101.783 58.8417 102.847 63.5603 103.703 72.8755C104.362 80.0637 105.71 89.0415 106.697 92.8276C108.436 99.4951 108.393 99.8059 105.301 102.714C103.546 104.365 100.4 109.338 98.3095 113.764C93.6221 123.69 88.8711 128.622 80.2673 132.491C76.6187 134.133 72.3679 136.885 70.8209 138.608C67.2693 142.562 0 240.605 0 241.826C0 242.323 11.0371 253.769 24.5273 267.262C45.8027 288.543 49.2974 291.534 50.8815 289.833C52.7933 287.779 117.165 180.515 120.486 173.85C121.645 171.523 122.321 166.585 122.207 161.278C121.953 149.583 123.454 145.558 134.321 128.788L143.575 114.507H149.167C152.244 114.507 159.746 113.012 165.841 111.186C171.936 109.359 178.581 107.864 180.607 107.864C189.428 107.864 195.412 114.26 196.766 125.134C197.366 129.951 198.494 131.955 202.572 135.447C210.648 142.362 219.692 147.814 226.481 149.86C232.429 151.652 233.101 151.588 238.777 148.677C243.691 146.157 246.55 142.956 254.523 131.049C266.67 112.905 270.624 104.737 270.64 97.7482C270.657 90.4151 267.835 87.1338 252.47 76.6296L239.754 67.9336L232.776 69.9648C218.226 74.2013 211.944 71.6958 202.783 58.0087C197.353 49.8958 195.523 48.4491 171.123 32.9699C144.416 16.0268 131.13 9.85477 108.849 4.04012C97.5068 1.08031 73.1228 -0.242839 63.2015 1.56386Z" fill="#00D061"/>
</g>
</g>
</g>
</g>
<defs>
<clipPath id="clip0_2399_2">
<rect width="271" height="291" fill="white"/>
</clipPath>
</defs>
</svg>
