<svg viewBox="0 0 193 80" xmlns="http://www.w3.org/2000/svg" xmlns:xlink="http://www.w3.org/1999/xlink" width="193.000000" height="80.000000" fill="none" customFrame="#000000">
	<g id="Group 77">
		<g id="Group 1">
			<path id="image 4 (Traced)" d="M39.8117 27.557L39.8117 30.1306L42.381 30.1306L44.9503 30.1306L44.9503 27.557L44.9503 24.9834L42.381 24.9834L39.8117 24.9834L39.8117 27.557ZM46.0514 27.557L46.0514 30.1306L48.6207 30.1306L51.19 30.1306L51.19 27.557L51.19 24.9834L48.6207 24.9834L46.0514 24.9834L46.0514 27.557ZM39.8117 33.8991L39.8117 36.5646L42.381 36.5646L44.9503 36.5646L44.9503 33.8991L44.9503 31.2336L42.381 31.2336L39.8117 31.2336L39.8117 33.8991ZM46.1738 31.3562C46.1065 31.4235 46.0514 32.623 46.0514 34.0217L46.0514 36.5646L48.6207 36.5646L51.19 36.5646L51.19 33.8991L51.19 31.2336L48.7431 31.2336C47.3972 31.2336 46.241 31.2887 46.1738 31.3562ZM34.9736 40.0541C32.6706 40.4736 29.2688 42.3793 28.1125 43.8981C27.51 44.6893 27.2886 45.6989 27.757 45.5189C29.2624 44.9402 34.6812 44.8983 36.4203 45.4518C37.5913 45.8246 39.6122 47.0433 40.0635 47.6488C40.3104 47.98 40.4575 48.633 40.5759 49.922C40.6671 50.9167 40.8536 52.159 40.9901 52.6829C41.2307 53.6056 41.2247 53.6486 40.7971 54.051C40.5543 54.2795 40.1191 54.9676 39.8299 55.5801C39.1815 56.9536 38.5243 57.636 37.3342 58.1715C36.8295 58.3987 36.2415 58.7794 36.0275 59.0179C35.5363 59.5651 26.2312 73.1321 26.2312 73.301C26.2312 73.3698 27.7579 74.9536 29.6239 76.8208C32.5669 79.7655 33.0503 80.1795 33.2694 79.944C33.5339 79.6598 42.4381 64.8169 42.8974 63.8947C43.0578 63.5726 43.1513 62.8893 43.1355 62.1549C43.1004 60.5367 43.308 59.9797 44.8112 57.659L46.0913 55.6828L46.8648 55.6828C47.2904 55.6828 48.3282 55.476 49.1713 55.2233C50.0144 54.9705 50.9335 54.7637 51.2137 54.7637C52.4339 54.7637 53.2616 55.6486 53.449 57.1535C53.5319 57.82 53.6879 58.0972 54.2521 58.5805C55.3691 59.5374 56.6202 60.2918 57.5593 60.5749C58.382 60.8229 58.475 60.8141 59.2602 60.4113C59.9399 60.0626 60.3354 59.6195 61.4382 57.9719C63.1185 55.4612 63.6654 54.331 63.6676 53.3638C63.67 52.3491 63.2796 51.895 61.1543 50.4415L59.3952 49.2382L58.4301 49.5192C56.4174 50.1055 55.5484 49.7588 54.2812 47.8648C53.5301 46.7421 53.277 46.5419 49.9019 44.4C46.2076 42.0554 44.3698 41.2013 41.2878 40.3967C39.7189 39.9872 36.3459 39.8041 34.9736 40.0541Z" fill="rgb(255,255,255)" fill-rule="evenodd" />
			<path id="image 4 (Traced)" d="M43.9409 0.247927C43.0659 0.646468 0.607499 43.3207 0.269271 44.1419C-0.0902462 45.0145 -0.0896949 46.1324 0.270556 47.003C0.46674 47.4775 4.01566 51.1577 11.8762 59.0379C18.1038 65.2811 23.262 70.3894 23.3387 70.3894C23.4156 70.3894 23.4784 65.0537 23.4784 58.5324L23.4784 46.6754L20.0774 46.6754C16.159 46.6754 15.6487 46.5532 15.1471 45.4945C14.5677 44.2717 14.8239 43.8308 18.1458 40.3333C18.8181 39.6256 24.9631 33.029 31.8016 25.6744C38.64 18.3196 44.3906 12.2189 44.5807 12.117C45.1542 11.8095 46.1502 11.9038 46.6719 12.315C46.9395 12.5259 52.1742 18.0867 58.3044 24.6724C64.4347 31.258 70.8425 38.1376 72.5439 39.9605C74.2454 41.7832 75.7664 43.5406 75.924 43.8656C76.329 44.7005 75.987 45.8202 75.1754 46.3158C74.6478 46.6381 74.234 46.6741 71.0561 46.6747L67.5234 46.6754L67.5234 58.5324C67.5234 65.0537 67.5861 70.3894 67.663 70.3894C67.7397 70.3894 72.9335 65.2397 79.2046 58.946C88.3974 49.72 90.6503 47.3651 90.8314 46.7927C91.1694 45.7245 90.9845 44.2516 90.408 43.422C90.1408 43.0376 80.4436 33.234 68.8587 21.6362C53.9777 6.73893 47.5947 0.466132 47.1126 0.266126C46.2764 -0.080943 44.6833 -0.0901343 43.9409 0.247927Z" fill="rgb(0,208,97)" fill-rule="evenodd" />
		</g>
		<path id="Home Rakshak" d="M102.728 33.88L102.728 17.008L105.992 17.008L105.992 33.88L102.728 33.88ZM113.312 33.88L113.312 17.008L116.576 17.008L116.576 33.88L113.312 33.88ZM104.792 26.608L104.792 23.728L114.224 23.728L114.224 26.608L104.792 26.608ZM125.137 34.12C123.969 34.12 122.913 33.856 121.969 33.328C121.041 32.784 120.297 32.056 119.737 31.144C119.193 30.216 118.921 29.184 118.921 28.048C118.921 26.912 119.193 25.896 119.737 25C120.281 24.088 121.025 23.368 121.969 22.84C122.913 22.296 123.961 22.024 125.113 22.024C126.297 22.024 127.353 22.296 128.281 22.84C129.225 23.368 129.969 24.088 130.513 25C131.057 25.896 131.329 26.912 131.329 28.048C131.329 29.184 131.057 30.216 130.513 31.144C129.969 32.056 129.225 32.784 128.281 33.328C127.353 33.856 126.305 34.12 125.137 34.12ZM125.113 31.192C125.705 31.192 126.225 31.064 126.673 30.808C127.137 30.536 127.489 30.168 127.729 29.704C127.985 29.224 128.113 28.68 128.113 28.072C128.113 27.464 127.985 26.928 127.729 26.464C127.473 26 127.121 25.64 126.673 25.384C126.225 25.112 125.705 24.976 125.113 24.976C124.537 24.976 124.025 25.112 123.577 25.384C123.129 25.64 122.777 26 122.521 26.464C122.265 26.928 122.137 27.464 122.137 28.072C122.137 28.68 122.265 29.224 122.521 29.704C122.777 30.168 123.129 30.536 123.577 30.808C124.025 31.064 124.537 31.192 125.113 31.192ZM133.353 33.88L133.353 22.288L136.497 22.288L136.497 33.88L133.353 33.88ZM140.913 33.88L140.913 27.04C140.913 26.368 140.697 25.848 140.265 25.48C139.849 25.096 139.329 24.904 138.705 24.904C138.289 24.904 137.913 24.992 137.577 25.168C137.241 25.328 136.977 25.568 136.785 25.888C136.593 26.208 136.497 26.592 136.497 27.04L135.273 26.44C135.273 25.544 135.465 24.768 135.849 24.112C136.249 23.456 136.785 22.952 137.457 22.6C138.129 22.232 138.889 22.048 139.737 22.048C140.537 22.048 141.265 22.232 141.921 22.6C142.577 22.952 143.097 23.456 143.481 24.112C143.865 24.752 144.057 25.528 144.057 26.44L144.057 33.88L140.913 33.88ZM148.473 33.88L148.473 27.04C148.473 26.368 148.257 25.848 147.825 25.48C147.409 25.096 146.889 24.904 146.265 24.904C145.865 24.904 145.489 24.992 145.137 25.168C144.801 25.328 144.537 25.568 144.345 25.888C144.153 26.208 144.057 26.592 144.057 27.04L142.257 26.608C142.321 25.68 142.569 24.88 143.001 24.208C143.433 23.52 144.001 22.992 144.705 22.624C145.409 22.24 146.193 22.048 147.057 22.048C147.921 22.048 148.697 22.232 149.385 22.6C150.073 22.952 150.617 23.464 151.017 24.136C151.417 24.808 151.617 25.608 151.617 26.536L151.617 33.88L148.473 33.88ZM159.709 34.12C158.493 34.12 157.413 33.864 156.469 33.352C155.525 32.824 154.773 32.104 154.213 31.192C153.669 30.28 153.397 29.24 153.397 28.072C153.397 26.92 153.661 25.896 154.189 25C154.733 24.088 155.469 23.368 156.397 22.84C157.325 22.296 158.357 22.024 159.493 22.024C160.613 22.024 161.597 22.28 162.445 22.792C163.309 23.288 163.981 23.976 164.461 24.856C164.957 25.72 165.205 26.704 165.205 27.808C165.205 28.016 165.189 28.232 165.157 28.456C165.141 28.664 165.101 28.904 165.037 29.176L155.293 29.2L155.293 26.848L163.573 26.824L162.301 27.808C162.269 27.12 162.141 26.544 161.917 26.08C161.709 25.616 161.397 25.264 160.981 25.024C160.581 24.768 160.085 24.64 159.493 24.64C158.869 24.64 158.325 24.784 157.861 25.072C157.397 25.344 157.037 25.736 156.781 26.248C156.541 26.744 156.421 27.336 156.421 28.024C156.421 28.728 156.549 29.344 156.805 29.872C157.077 30.384 157.461 30.784 157.957 31.072C158.453 31.344 159.029 31.48 159.685 31.48C160.277 31.48 160.813 31.384 161.293 31.192C161.773 30.984 162.189 30.68 162.541 30.28L164.389 32.128C163.829 32.784 163.141 33.28 162.325 33.616C161.525 33.952 160.653 34.12 159.709 34.12ZM105.128 56.824L105.128 54.28L109.04 54.28C109.84 54.28 110.456 54.08 110.888 53.68C111.336 53.264 111.56 52.696 111.56 51.976C111.56 51.32 111.336 50.776 110.888 50.344C110.456 49.896 109.84 49.672 109.04 49.672L105.128 49.672L105.128 47.008L109.328 47.008C110.416 47.008 111.368 47.224 112.184 47.656C113.016 48.072 113.656 48.648 114.104 49.384C114.568 50.12 114.8 50.968 114.8 51.928C114.8 52.92 114.568 53.784 114.104 54.52C113.656 55.24 113.016 55.808 112.184 56.224C111.352 56.624 110.384 56.824 109.28 56.824L105.128 56.824ZM102.728 63.88L102.728 47.008L105.992 47.008L105.992 63.88L102.728 63.88ZM111.944 63.88L106.376 56.584L109.376 55.648L115.904 63.88L111.944 63.88ZM121.935 64.12C120.879 64.12 119.927 63.856 119.079 63.328C118.231 62.8 117.567 62.08 117.087 61.168C116.607 60.256 116.367 59.232 116.367 58.096C116.367 56.944 116.607 55.912 117.087 55C117.567 54.088 118.231 53.368 119.079 52.84C119.927 52.312 120.879 52.048 121.935 52.048C122.767 52.048 123.511 52.216 124.167 52.552C124.823 52.888 125.343 53.36 125.727 53.968C126.127 54.56 126.343 55.232 126.375 55.984L126.375 60.16C126.343 60.928 126.127 61.608 125.727 62.2C125.343 62.792 124.823 63.264 124.167 63.616C123.511 63.952 122.767 64.12 121.935 64.12ZM122.511 61.216C123.391 61.216 124.103 60.928 124.647 60.352C125.191 59.76 125.463 59 125.463 58.072C125.463 57.464 125.335 56.928 125.079 56.464C124.839 55.984 124.495 55.616 124.047 55.36C123.615 55.088 123.103 54.952 122.511 54.952C121.935 54.952 121.423 55.088 120.975 55.36C120.543 55.616 120.199 55.984 119.943 56.464C119.703 56.928 119.583 57.464 119.583 58.072C119.583 58.696 119.703 59.248 119.943 59.728C120.199 60.192 120.543 60.56 120.975 60.832C121.423 61.088 121.935 61.216 122.511 61.216ZM125.295 63.88L125.295 60.76L125.799 57.928L125.295 55.144L125.295 52.288L128.415 52.288L128.415 63.88L125.295 63.88ZM138.589 63.88L134.101 57.904L138.565 52.288L142.189 52.288L136.957 58.624L137.077 57.088L142.429 63.88L138.589 63.88ZM131.197 63.88L131.197 46.528L134.341 46.528L134.341 63.88L131.197 63.88ZM147.181 64.144C146.525 64.144 145.877 64.056 145.237 63.88C144.613 63.704 144.037 63.464 143.509 63.16C142.981 62.84 142.525 62.456 142.141 62.008L144.013 60.112C144.413 60.56 144.877 60.896 145.405 61.12C145.933 61.344 146.517 61.456 147.157 61.456C147.669 61.456 148.053 61.384 148.309 61.24C148.581 61.096 148.717 60.88 148.717 60.592C148.717 60.272 148.573 60.024 148.285 59.848C148.013 59.672 147.653 59.528 147.205 59.416C146.757 59.288 146.285 59.152 145.789 59.008C145.309 58.848 144.845 58.648 144.397 58.408C143.949 58.152 143.581 57.808 143.293 57.376C143.021 56.928 142.885 56.352 142.885 55.648C142.885 54.912 143.061 54.272 143.413 53.728C143.781 53.184 144.301 52.76 144.973 52.456C145.645 52.152 146.437 52 147.349 52C148.309 52 149.173 52.168 149.941 52.504C150.725 52.84 151.373 53.344 151.885 54.016L149.989 55.912C149.637 55.48 149.237 55.168 148.789 54.976C148.357 54.784 147.885 54.688 147.373 54.688C146.909 54.688 146.549 54.76 146.293 54.904C146.053 55.048 145.933 55.248 145.933 55.504C145.933 55.792 146.069 56.016 146.341 56.176C146.629 56.336 146.997 56.48 147.445 56.608C147.893 56.72 148.357 56.856 148.837 57.016C149.333 57.16 149.797 57.368 150.229 57.64C150.677 57.912 151.037 58.272 151.309 58.72C151.597 59.168 151.741 59.744 151.741 60.448C151.741 61.584 151.333 62.488 150.517 63.16C149.701 63.816 148.589 64.144 147.181 64.144ZM161.661 63.88L161.661 57.232C161.661 56.544 161.445 55.984 161.013 55.552C160.581 55.12 160.021 54.904 159.333 54.904C158.885 54.904 158.485 55 158.133 55.192C157.781 55.384 157.501 55.656 157.293 56.008C157.101 56.36 157.005 56.768 157.005 57.232L155.781 56.608C155.781 55.696 155.973 54.904 156.357 54.232C156.741 53.544 157.269 53.008 157.941 52.624C158.629 52.24 159.413 52.048 160.293 52.048C161.173 52.048 161.949 52.24 162.621 52.624C163.309 53.008 163.845 53.536 164.229 54.208C164.613 54.88 164.805 55.656 164.805 56.536L164.805 63.88L161.661 63.88ZM153.861 63.88L153.861 46.528L157.005 46.528L157.005 63.88L153.861 63.88ZM172.185 64.12C171.129 64.12 170.177 63.856 169.329 63.328C168.481 62.8 167.817 62.08 167.337 61.168C166.857 60.256 166.617 59.232 166.617 58.096C166.617 56.944 166.857 55.912 167.337 55C167.817 54.088 168.481 53.368 169.329 52.84C170.177 52.312 171.129 52.048 172.185 52.048C173.017 52.048 173.761 52.216 174.417 52.552C175.073 52.888 175.593 53.36 175.977 53.968C176.377 54.56 176.593 55.232 176.625 55.984L176.625 60.16C176.593 60.928 176.377 61.608 175.977 62.2C175.593 62.792 175.073 63.264 174.417 63.616C173.761 63.952 173.017 64.12 172.185 64.12ZM172.761 61.216C173.641 61.216 174.353 60.928 174.897 60.352C175.441 59.76 175.713 59 175.713 58.072C175.713 57.464 175.585 56.928 175.329 56.464C175.089 55.984 174.745 55.616 174.297 55.36C173.865 55.088 173.353 54.952 172.761 54.952C172.185 54.952 171.673 55.088 171.225 55.36C170.793 55.616 170.449 55.984 170.193 56.464C169.953 56.928 169.833 57.464 169.833 58.072C169.833 58.696 169.953 59.248 170.193 59.728C170.449 60.192 170.793 60.56 171.225 60.832C171.673 61.088 172.185 61.216 172.761 61.216ZM175.545 63.88L175.545 60.76L176.049 57.928L175.545 55.144L175.545 52.288L178.665 52.288L178.665 63.88L175.545 63.88ZM188.839 63.88L184.351 57.904L188.815 52.288L192.439 52.288L187.207 58.624L187.327 57.088L192.679 63.88L188.839 63.88ZM181.447 63.88L181.447 46.528L184.591 46.528L184.591 63.88L181.447 63.88Z" fill="rgb(255,255,255)" fill-rule="nonzero" />
	</g>
</svg>
